<svg xmlns="http://www.w3.org/2000/svg" xmlns:xlink="http://www.w3.org/1999/xlink" width="500" zoomAndPan="magnify" viewBox="0 0 375 94.499997" height="126" preserveAspectRatio="xMidYMid meet" version="1.0"><defs><g/><clipPath id="480e5f4895"><path d="M 0.988281 0 L 374.011719 0 L 374.011719 94.003906 L 0.988281 94.003906 Z M 0.988281 0 " clip-rule="nonzero"/></clipPath><clipPath id="b0b71fc05c"><path d="M 203 23.789062 L 208 23.789062 L 208 30 L 203 30 Z M 203 23.789062 " clip-rule="nonzero"/></clipPath><clipPath id="739fa9749b"><path d="M 208 23.789062 L 212 23.789062 L 212 30 L 208 30 Z M 208 23.789062 " clip-rule="nonzero"/></clipPath><clipPath id="826d12111c"><path d="M 213 30 L 219.8125 30 L 219.8125 35 L 213 35 Z M 213 30 " clip-rule="nonzero"/></clipPath><clipPath id="d360aca3b9"><path d="M 195.878906 34 L 202 34 L 202 39 L 195.878906 39 Z M 195.878906 34 " clip-rule="nonzero"/></clipPath><clipPath id="444de1021a"><path d="M 214 34 L 219.8125 34 L 219.8125 39 L 214 39 Z M 214 34 " clip-rule="nonzero"/></clipPath><clipPath id="73c8dba652"><path d="M 213 37 L 219.8125 37 L 219.8125 43 L 213 43 Z M 213 37 " clip-rule="nonzero"/></clipPath><clipPath id="1491a49ee8"><path d="M 201 41 L 207 41 L 207 47.722656 L 201 47.722656 Z M 201 41 " clip-rule="nonzero"/></clipPath><clipPath id="e3d95a27b9"><path d="M 209 41 L 214 41 L 214 47.722656 L 209 47.722656 Z M 209 41 " clip-rule="nonzero"/></clipPath><clipPath id="5dd048bea8"><path d="M 206 42 L 210 42 L 210 47.722656 L 206 47.722656 Z M 206 42 " clip-rule="nonzero"/></clipPath><clipPath id="93b629c812"><path d="M 1 21.167969 L 62.886719 21.167969 L 62.886719 73.164062 L 1 73.164062 Z M 1 21.167969 " clip-rule="nonzero"/></clipPath></defs><g clip-path="url(#480e5f4895)"><path fill="#ffffff" d="M 0.988281 0 L 374.011719 0 L 374.011719 94.003906 L 0.988281 94.003906 Z M 0.988281 0 " fill-opacity="1" fill-rule="nonzero"/><path fill="#ffffff" d="M 0.988281 0 L 374.011719 0 L 374.011719 94.003906 L 0.988281 94.003906 Z M 0.988281 0 " fill-opacity="1" fill-rule="nonzero"/></g><g clip-path="url(#b0b71fc05c)"><path fill="#183668" d="M 205.769531 29.3125 C 205.738281 29.289062 205.730469 29.265625 205.714844 29.230469 C 205.121094 27.691406 204.523438 26.152344 203.929688 24.613281 C 203.894531 24.523438 203.90625 24.464844 204 24.433594 C 205.0625 24.070312 206.15625 23.863281 207.28125 23.808594 C 207.390625 23.804688 207.5 23.789062 207.5 23.925781 C 207.5 25.589844 207.5 27.253906 207.5 28.921875 C 207.5 28.996094 207.460938 29.035156 207.390625 29.039062 C 206.863281 29.074219 206.355469 29.171875 205.859375 29.324219 C 205.828125 29.332031 205.796875 29.328125 205.769531 29.3125 Z M 205.769531 29.3125 " fill-opacity="1" fill-rule="nonzero"/></g><g clip-path="url(#739fa9749b)"><path fill="#eb1c2d" d="M 208.242188 29.019531 C 208.199219 28.992188 208.1875 28.964844 208.1875 28.910156 C 208.1875 27.242188 208.1875 25.578125 208.1875 23.910156 C 208.1875 23.800781 208.296875 23.804688 208.375 23.808594 C 209.507812 23.859375 210.609375 24.066406 211.683594 24.429688 C 211.777344 24.460938 211.800781 24.511719 211.765625 24.605469 C 211.167969 26.144531 210.574219 27.6875 209.976562 29.230469 C 209.941406 29.320312 209.898438 29.34375 209.808594 29.316406 C 209.308594 29.164062 208.800781 29.070312 208.285156 29.039062 C 208.269531 29.035156 208.253906 29.03125 208.242188 29.019531 Z M 208.242188 29.019531 " fill-opacity="1" fill-rule="nonzero"/></g><path fill="#02558b" d="M 203.570312 30.476562 C 203.5625 30.472656 203.558594 30.464844 203.550781 30.460938 C 202.425781 29.226562 201.304688 27.992188 200.183594 26.761719 C 200.113281 26.6875 200.144531 26.628906 200.210938 26.574219 C 201.09375 25.832031 202.066406 25.234375 203.121094 24.773438 C 203.195312 24.742188 203.253906 24.769531 203.28125 24.839844 C 203.878906 26.390625 204.480469 27.9375 205.078125 29.484375 C 205.105469 29.554688 205.09375 29.613281 205.023438 29.648438 C 204.554688 29.871094 204.117188 30.144531 203.710938 30.464844 C 203.667969 30.5 203.621094 30.503906 203.570312 30.476562 Z M 203.570312 30.476562 " fill-opacity="1" fill-rule="nonzero"/><path fill="#d3a029" d="M 210.640625 29.632812 C 210.585938 29.601562 210.59375 29.535156 210.617188 29.480469 C 211.210938 27.9375 211.808594 26.394531 212.40625 24.851562 C 212.4375 24.769531 212.492188 24.738281 212.574219 24.773438 C 213.609375 25.226562 214.566406 25.816406 215.433594 26.539062 C 215.527344 26.617188 215.597656 26.664062 215.496094 26.773438 C 214.410156 27.96875 213.320312 29.164062 212.234375 30.359375 C 212.175781 30.421875 212.089844 30.550781 211.988281 30.46875 C 211.679688 30.222656 211.355469 30.011719 211.007812 29.824219 C 210.886719 29.761719 210.765625 29.695312 210.640625 29.632812 Z M 210.640625 29.632812 " fill-opacity="1" fill-rule="nonzero"/><path fill="#5dbb46" d="M 199.511719 27.207031 C 199.621094 27.105469 199.757812 27.316406 199.820312 27.382812 C 200.894531 28.5625 201.96875 29.742188 203.042969 30.921875 C 203.101562 30.984375 203.066406 31.042969 203.015625 31.097656 C 202.679688 31.453125 202.371094 31.863281 202.089844 32.324219 C 202.046875 32.398438 201.972656 32.375 201.90625 32.339844 C 200.4375 31.609375 198.96875 30.878906 197.5 30.144531 C 197.410156 30.101562 197.375 30.050781 197.429688 29.957031 C 197.996094 28.933594 198.691406 28.015625 199.511719 27.207031 Z M 199.511719 27.207031 " fill-opacity="1" fill-rule="nonzero"/><path fill="#279b48" d="M 216.367188 27.402344 C 217.113281 28.167969 217.746094 29.019531 218.261719 29.957031 C 218.300781 30.03125 218.296875 30.09375 218.21875 30.128906 C 216.738281 30.871094 215.253906 31.609375 213.769531 32.347656 C 213.695312 32.386719 213.636719 32.386719 213.59375 32.3125 C 213.335938 31.882812 213.023438 31.46875 212.648438 31.066406 C 212.597656 31.011719 212.621094 30.949219 212.667969 30.898438 C 213.78125 29.679688 214.894531 28.457031 216.003906 27.234375 C 216.050781 27.1875 216.105469 27.15625 216.164062 27.195312 C 216.226562 27.238281 216.3125 27.34375 216.367188 27.402344 Z M 216.367188 27.402344 " fill-opacity="1" fill-rule="nonzero"/><path fill="#007dbc" d="M 201.132812 34.714844 C 199.484375 34.570312 197.835938 34.414062 196.191406 34.257812 C 196.085938 34.25 196.046875 34.210938 196.0625 34.105469 C 196.214844 32.964844 196.527344 31.867188 197 30.816406 C 197.03125 30.746094 197.085938 30.707031 197.15625 30.742188 C 198.644531 31.484375 200.132812 32.226562 201.621094 32.96875 C 201.691406 33 201.722656 33.050781 201.691406 33.125 C 201.492188 33.601562 201.351562 34.097656 201.265625 34.609375 C 201.253906 34.6875 201.210938 34.722656 201.132812 34.714844 Z M 201.132812 34.714844 " fill-opacity="1" fill-rule="nonzero"/><g clip-path="url(#826d12111c)"><path fill="#c31f33" d="M 214.480469 34.703125 C 214.453125 34.6875 214.433594 34.664062 214.429688 34.628906 C 214.34375 34.113281 214.203125 33.617188 214.003906 33.132812 C 213.980469 33.070312 213.984375 33.007812 214.046875 32.976562 C 215.539062 32.234375 217.035156 31.488281 218.53125 30.742188 C 218.609375 30.703125 218.660156 30.746094 218.695312 30.820312 C 219.164062 31.871094 219.476562 32.96875 219.628906 34.109375 C 219.640625 34.207031 219.605469 34.25 219.511719 34.257812 C 217.851562 34.410156 216.195312 34.566406 214.539062 34.71875 C 214.519531 34.71875 214.5 34.714844 214.480469 34.703125 Z M 214.480469 34.703125 " fill-opacity="1" fill-rule="nonzero"/></g><g clip-path="url(#d360aca3b9)"><path fill="#48773e" d="M 201.023438 35.398438 C 201.121094 35.40625 201.179688 35.417969 201.179688 35.527344 C 201.167969 36.042969 201.214844 36.554688 201.320312 37.070312 C 201.332031 37.140625 201.304688 37.1875 201.234375 37.207031 C 199.644531 37.664062 198.054688 38.113281 196.464844 38.566406 C 196.320312 38.609375 196.300781 38.550781 196.269531 38.425781 C 196.015625 37.328125 195.914062 36.210938 195.972656 35.082031 C 195.976562 35.003906 196 34.929688 196.089844 34.9375 C 197.734375 35.09375 199.378906 35.246094 201.023438 35.398438 Z M 201.023438 35.398438 " fill-opacity="1" fill-rule="nonzero"/></g><g clip-path="url(#444de1021a)"><path fill="#ef402b" d="M 214.425781 37.195312 C 214.367188 37.160156 214.363281 37.121094 214.375 37.054688 C 214.476562 36.5625 214.519531 36.0625 214.511719 35.558594 C 214.507812 35.476562 214.523438 35.410156 214.613281 35.402344 C 216.273438 35.25 217.929688 35.09375 219.585938 34.941406 C 219.683594 34.933594 219.714844 34.984375 219.71875 35.074219 C 219.777344 36.203125 219.671875 37.339844 219.410156 38.476562 C 219.382812 38.589844 219.324219 38.597656 219.222656 38.566406 C 217.632812 38.113281 216.042969 37.660156 214.449219 37.207031 C 214.441406 37.207031 214.433594 37.203125 214.425781 37.195312 Z M 214.425781 37.195312 " fill-opacity="1" fill-rule="nonzero"/></g><path fill="#cf8d2a" d="M 201.523438 37.886719 C 201.539062 37.894531 201.554688 37.914062 201.5625 37.933594 C 201.707031 38.339844 201.890625 38.730469 202.117188 39.109375 C 202.164062 39.1875 202.210938 39.265625 202.257812 39.339844 C 202.292969 39.402344 202.289062 39.453125 202.234375 39.496094 C 200.914062 40.492188 199.597656 41.488281 198.277344 42.484375 C 198.210938 42.539062 198.140625 42.574219 198.082031 42.488281 C 197.421875 41.542969 196.90625 40.511719 196.539062 39.390625 C 196.503906 39.277344 196.582031 39.246094 196.679688 39.21875 C 198.257812 38.769531 199.835938 38.320312 201.417969 37.871094 C 201.460938 37.859375 201.484375 37.863281 201.523438 37.886719 Z M 201.523438 37.886719 " fill-opacity="1" fill-rule="nonzero"/><g clip-path="url(#73c8dba652)"><path fill="#00aed9" d="M 213.457031 39.492188 C 213.402344 39.449219 213.398438 39.394531 213.4375 39.335938 C 213.714844 38.902344 213.945312 38.445312 214.121094 37.960938 C 214.148438 37.878906 214.195312 37.847656 214.277344 37.875 C 215.875 38.328125 217.472656 38.78125 219.070312 39.238281 C 219.164062 39.265625 219.171875 39.332031 219.140625 39.417969 C 218.78125 40.503906 218.277344 41.519531 217.628906 42.460938 C 217.570312 42.546875 217.519531 42.566406 217.4375 42.503906 C 216.109375 41.5 214.78125 40.496094 213.457031 39.492188 Z M 213.457031 39.492188 " fill-opacity="1" fill-rule="nonzero"/></g><path fill="#f99d26" d="M 201.191406 45.558594 C 200.242188 44.917969 199.398438 44.144531 198.648438 43.238281 C 198.5625 43.136719 198.621094 43.085938 198.707031 43.023438 C 200.019531 42.03125 201.328125 41.039062 202.640625 40.046875 C 202.722656 39.988281 202.773438 40.027344 202.832031 40.097656 C 203.171875 40.480469 203.542969 40.820312 203.949219 41.113281 C 204.03125 41.171875 204.011719 41.230469 203.964844 41.308594 C 203.097656 42.707031 202.230469 44.109375 201.363281 45.507812 C 201.320312 45.582031 201.265625 45.609375 201.191406 45.558594 Z M 201.191406 45.558594 " fill-opacity="1" fill-rule="nonzero"/><path fill="#fdb713" d="M 214.378906 45.566406 C 214.363281 45.558594 214.351562 45.546875 214.339844 45.53125 C 213.488281 44.15625 212.636719 42.777344 211.78125 41.394531 C 211.738281 41.328125 211.628906 41.195312 211.722656 41.125 C 212.136719 40.828125 212.527344 40.46875 212.894531 40.054688 C 212.941406 40.003906 213.003906 40.015625 213.054688 40.054688 C 214.359375 41.039062 215.664062 42.023438 216.96875 43.011719 C 217.054688 43.074219 217.132812 43.125 217.050781 43.230469 C 216.3125 44.128906 215.460938 44.90625 214.5 45.5625 C 214.460938 45.589844 214.421875 45.589844 214.378906 45.566406 Z M 214.378906 45.566406 " fill-opacity="1" fill-rule="nonzero"/><g clip-path="url(#1491a49ee8)"><path fill="#e11484" d="M 202.007812 46.066406 C 201.9375 46.023438 201.882812 45.976562 201.933594 45.894531 C 202.8125 44.46875 203.695312 43.046875 204.574219 41.625 C 204.617188 41.558594 204.683594 41.574219 204.746094 41.609375 C 205.191406 41.839844 205.671875 42.023438 206.1875 42.160156 C 206.265625 42.183594 206.269531 42.25 206.257812 42.324219 C 205.953125 43.957031 205.644531 45.589844 205.339844 47.222656 C 205.324219 47.304688 205.253906 47.3125 205.179688 47.296875 C 204.0625 47.039062 203.007812 46.628906 202.007812 46.066406 Z M 202.007812 46.066406 " fill-opacity="1" fill-rule="nonzero"/></g><g clip-path="url(#e3d95a27b9)"><path fill="#8f1838" d="M 210.523438 47.292969 C 210.445312 47.3125 210.363281 47.308594 210.34375 47.210938 C 210.039062 45.578125 209.738281 43.945312 209.433594 42.308594 C 209.421875 42.246094 209.433594 42.179688 209.5 42.164062 C 210.027344 42.019531 210.507812 41.835938 210.945312 41.605469 C 211.011719 41.574219 211.074219 41.558594 211.117188 41.628906 C 211.988281 43.035156 212.859375 44.4375 213.726562 45.84375 C 213.765625 45.910156 213.808594 45.992188 213.722656 46.042969 C 212.726562 46.613281 211.660156 47.03125 210.523438 47.292969 Z M 210.523438 47.292969 " fill-opacity="1" fill-rule="nonzero"/></g><g clip-path="url(#5dd048bea8)"><path fill="#f36d25" d="M 206.070312 47.457031 C 206.011719 47.414062 206.011719 47.378906 206.023438 47.308594 C 206.328125 45.679688 206.632812 44.046875 206.9375 42.417969 C 206.953125 42.324219 207.023438 42.320312 207.109375 42.328125 C 207.597656 42.382812 208.105469 42.382812 208.636719 42.324219 C 208.722656 42.316406 208.746094 42.382812 208.761719 42.457031 C 209.0625 44.078125 209.367188 45.699219 209.667969 47.320312 C 209.683594 47.402344 209.660156 47.460938 209.570312 47.472656 C 208.410156 47.636719 207.253906 47.636719 206.101562 47.46875 C 206.089844 47.46875 206.078125 47.464844 206.070312 47.457031 Z M 206.070312 47.457031 " fill-opacity="1" fill-rule="nonzero"/></g><g clip-path="url(#93b629c812)"><path fill="#009edb" d="M 49.839844 68.535156 C 49.917969 68.488281 50.003906 68.445312 50.089844 68.410156 C 50.175781 68.371094 50.15625 68.410156 50.167969 68.453125 C 49.058594 69.582031 47.75 70.367188 46.234375 70.804688 C 45.21875 71.085938 44.160156 71.164062 43.117188 71.03125 C 41.515625 70.8125 40.050781 70.234375 38.722656 69.296875 C 37.917969 68.773438 37.125 68.214844 36.328125 67.667969 C 35.414062 67.058594 34.417969 66.871094 33.347656 67.101562 C 32.769531 67.164062 33.207031 67.441406 33.296875 67.484375 C 34.71875 68.191406 36.058594 69.035156 37.316406 70.015625 C 38.167969 70.648438 39.683594 72.117188 39.683594 72.117188 L 38.546875 73.097656 C 38.546875 73.097656 37.679688 72.117188 37.304688 71.734375 C 35.78125 70.105469 34.050781 68.75 32.109375 67.667969 C 32.035156 67.601562 31.949219 67.570312 31.851562 67.570312 C 31.753906 67.570312 31.664062 67.601562 31.589844 67.667969 C 29.652344 68.75 27.921875 70.105469 26.398438 71.734375 C 26.023438 72.117188 25.15625 73.097656 25.15625 73.097656 L 24.019531 72.117188 C 24.019531 72.117188 25.535156 70.636719 26.386719 70.015625 C 27.640625 69.035156 28.980469 68.191406 30.40625 67.484375 C 30.496094 67.441406 30.925781 67.164062 30.359375 67.101562 C 29.285156 66.867188 28.289062 67.058594 27.375 67.667969 C 26.578125 68.195312 25.785156 68.761719 24.980469 69.296875 C 23.652344 70.238281 22.1875 70.8125 20.585938 71.03125 C 19.539062 71.164062 18.480469 71.085938 17.46875 70.804688 C 15.953125 70.363281 14.640625 69.578125 13.53125 68.445312 C 13.554688 68.421875 13.582031 68.410156 13.613281 68.410156 C 13.699219 68.445312 13.78125 68.488281 13.863281 68.535156 C 15.53125 69.363281 17.269531 69.570312 19.082031 69.148438 C 20.300781 68.863281 21.472656 68.453125 22.605469 67.914062 C 23.425781 67.5625 24.234375 67.167969 25.082031 66.890625 C 27.28125 66.171875 29.492188 66.121094 31.722656 66.738281 L 31.949219 66.738281 C 34.175781 66.121094 36.390625 66.171875 38.589844 66.890625 C 39.433594 67.167969 40.246094 67.5625 41.066406 67.914062 C 42.195312 68.453125 43.371094 68.863281 44.585938 69.148438 C 46.34375 69.558594 48.191406 69.339844 49.808594 68.535156 M 55.3125 63.582031 C 54.609375 64.15625 53.820312 64.574219 52.957031 64.84375 C 51.742188 65.207031 50.503906 65.390625 49.242188 65.40625 C 47.621094 65.457031 46.003906 65.597656 44.402344 65.832031 C 44.300781 65.832031 44.253906 65.800781 44.285156 65.765625 C 44.296875 65.765625 44.304688 65.765625 44.3125 65.765625 C 45.011719 65.472656 45.636719 65.0625 46.183594 64.527344 C 46.726562 63.992188 47.15625 63.378906 47.46875 62.679688 C 47.988281 61.695312 48.820312 59.773438 49.027344 59.460938 L 49.027344 59.382812 C 48.917969 59.414062 47.335938 60.785156 46.613281 61.457031 C 45.71875 62.296875 44.878906 63.195312 43.980469 64.035156 C 42.765625 65.085938 41.382812 65.796875 39.824219 66.167969 L 39.765625 66.191406 C 39.753906 66.214844 39.742188 66.238281 39.730469 66.261719 L 39.765625 66.261719 C 40.328125 66.390625 41.960938 66.75 42.800781 66.976562 C 44.078125 67.347656 45.382812 67.59375 46.707031 67.710938 C 47.550781 67.796875 48.386719 67.769531 49.222656 67.625 C 50.054688 67.480469 50.855469 67.226562 51.625 66.867188 C 52.390625 66.503906 53.097656 66.042969 53.738281 65.488281 C 54.382812 64.933594 54.941406 64.300781 55.417969 63.59375 C 57.347656 60.707031 55.417969 63.59375 55.417969 63.59375 C 55.382812 63.574219 55.34375 63.574219 55.308594 63.59375 M 60.226562 55.972656 C 59.410156 56.941406 58.46875 57.773438 57.40625 58.460938 C 56.492188 59.074219 55.527344 59.601562 54.515625 60.039062 C 53.234375 60.574219 52.046875 61.273438 50.957031 62.136719 L 50.75 62.296875 C 50.710938 62.328125 50.671875 62.296875 50.71875 62.226562 C 50.765625 62.160156 52.410156 60.460938 52.902344 56.863281 C 53.074219 55.605469 53.101562 54.238281 53.5 53.042969 C 53.507812 53.003906 53.5 52.972656 53.476562 52.941406 C 52.304688 54.425781 51.410156 56.0625 50.796875 57.859375 C 50.460938 58.820312 50.144531 59.785156 49.804688 60.742188 C 49.375 62.066406 48.683594 63.234375 47.726562 64.238281 L 47.636719 64.332031 C 47.632812 64.351562 47.632812 64.371094 47.636719 64.390625 L 47.964844 64.332031 C 49.058594 64.101562 50.152344 63.839844 51.257812 63.652344 C 53.085938 63.371094 54.734375 62.664062 56.203125 61.523438 C 57.730469 60.402344 58.925781 58.992188 59.78125 57.289062 C 60.007812 56.851562 60.1875 56.390625 60.328125 55.914062 C 60.292969 55.898438 60.261719 55.898438 60.226562 55.914062 M 62.378906 47.347656 C 61.839844 48.925781 60.976562 50.292969 59.78125 51.445312 C 58.425781 52.78125 57.183594 54.210938 56.046875 55.742188 C 56.019531 55.777344 55.957031 55.742188 55.980469 55.695312 C 56.449219 54.109375 56.566406 52.5 56.328125 50.863281 C 56.113281 49.496094 55.523438 48.011719 55.375 46.339844 C 55.363281 46.304688 55.339844 46.28125 55.308594 46.265625 C 55.277344 46.25 55.308594 46.296875 55.25 46.425781 C 54.898438 47.503906 54.667969 48.609375 54.554688 49.742188 C 54.484375 51.105469 54.738281 52.851562 54.628906 54.253906 C 54.5 55.878906 54.390625 57.480469 53.65625 58.945312 L 53.65625 59.082031 C 54.246094 58.699219 55.921875 57.699219 57.027344 56.949219 C 58.433594 56.039062 59.621094 54.890625 60.585938 53.515625 C 61.832031 51.722656 62.453125 49.730469 62.441406 47.539062 C 62.445312 47.464844 62.445312 47.394531 62.441406 47.320312 C 62.4375 47.25 62.363281 47.359375 62.359375 47.371094 M 58.800781 48.292969 C 58.800781 48.292969 58.773438 48.292969 58.769531 48.324219 C 58.761719 48.355469 58.714844 48.292969 58.714844 48.285156 C 58.769531 47.828125 58.777344 47.367188 58.746094 46.90625 C 58.632812 45.332031 57.675781 43.988281 56.839844 42.652344 C 56.265625 41.785156 55.761719 40.875 55.324219 39.925781 C 55.300781 39.902344 55.269531 39.890625 55.238281 39.886719 C 55.238281 40.03125 55.238281 40.5 55.289062 40.804688 C 55.605469 43.105469 56.171875 45.339844 56.992188 47.511719 C 57.523438 48.878906 57.722656 50.292969 57.589844 51.753906 C 57.589844 51.882812 57.589844 51.898438 57.621094 51.933594 C 58.140625 51.1875 59.128906 50.140625 59.738281 49.390625 C 60.351562 48.640625 63.746094 44.722656 62.097656 39.355469 C 62.03125 39.125 61.945312 38.90625 61.839844 38.691406 C 61.730469 38.480469 61.765625 38.761719 61.765625 38.777344 C 61.765625 42.636719 59.925781 44.292969 59.167969 46.933594 C 59.019531 47.457031 58.902344 47.90625 58.804688 48.292969 M 58.804688 40.320312 C 58.804688 40.320312 58.625 39.796875 58.445312 39.382812 C 58.375 39.191406 58.296875 39.019531 58.234375 38.890625 C 57.648438 37.710938 56.882812 37.101562 55.90625 36.292969 C 55.167969 35.617188 54.519531 34.859375 53.964844 34.023438 C 53.933594 34.011719 53.90625 34.011719 53.875 34.023438 L 53.832031 34.023438 C 53.863281 34.1875 54.394531 35.886719 54.734375 36.679688 C 55.28125 37.792969 55.953125 38.824219 56.746094 39.769531 L 56.910156 39.984375 C 57.84375 41.296875 58.578125 42.714844 59.117188 44.238281 C 59.117188 44.269531 59.195312 44.296875 59.195312 44.285156 C 59.296875 43.890625 59.777344 42.363281 60.132812 41.335938 C 60.46875 40.300781 60.746094 39.25 60.960938 38.183594 C 61.320312 35.648438 60.492188 32.347656 59.027344 30.546875 C 59.003906 30.546875 58.980469 30.625 58.988281 30.636719 L 59.058594 30.871094 C 59.089844 30.984375 59.121094 31.09375 59.148438 31.207031 C 59.449219 32.597656 59.472656 34.039062 59.210938 35.4375 C 59.007812 36.546875 58.90625 37.667969 58.902344 38.796875 C 58.902344 38.988281 59.027344 40.375 59.011719 40.429688 C 58.996094 40.488281 58.933594 40.429688 58.929688 40.429688 M 54.414062 26.125 C 54.886719 26.574219 55.25 27.097656 55.507812 27.699219 C 55.910156 28.65625 56.027344 30.101562 56.289062 31.1875 C 56.453125 31.855469 56.550781 32.320312 56.777344 33.074219 C 56.777344 33.140625 56.730469 33.167969 56.695312 33.105469 C 55.9375 32.054688 55.003906 31.417969 53.667969 30.566406 C 52.894531 30.101562 52.238281 29.503906 51.695312 28.777344 C 51.59375 28.640625 51.492188 28.507812 51.390625 28.378906 C 51.390625 28.378906 51.320312 28.339844 51.304688 28.351562 C 51.300781 28.40625 51.300781 28.464844 51.304688 28.519531 C 51.570312 29.828125 52.148438 30.972656 53.039062 31.953125 C 53.75 32.636719 54.550781 33.246094 55.308594 33.882812 C 56.285156 34.726562 57.171875 35.65625 57.96875 36.675781 C 58.761719 37.695312 58.03125 36.710938 58.03125 36.675781 C 58.03125 36.476562 58.003906 36.152344 58.003906 35.785156 C 58.003906 34.941406 58.042969 33.824219 58.078125 33.050781 C 58.078125 32.742188 58.105469 32.425781 58.105469 32.117188 C 58.128906 31.171875 57.964844 30.257812 57.609375 29.382812 C 57.023438 27.917969 56.035156 26.824219 54.644531 26.105469 L 54.382812 26.003906 C 54.371094 26.039062 54.371094 26.074219 54.382812 26.109375 M 48.585938 23.402344 C 49.382812 24.148438 50.074219 24.976562 50.664062 25.894531 C 51.210938 26.792969 51.863281 27.609375 52.617188 28.335938 C 53.136719 28.859375 54.664062 30.070312 55.050781 30.367188 L 55.082031 30.367188 C 55.003906 29.925781 54.3125 26.691406 52.300781 25.070312 C 51.136719 24.140625 49.832031 23.503906 48.390625 23.15625 C 48.378906 23.1875 48.378906 23.21875 48.390625 23.25 C 48.457031 23.316406 48.507812 23.351562 48.570312 23.414062 M 16.988281 67.792969 C 18.316406 67.679688 19.621094 67.433594 20.902344 67.058594 C 21.738281 66.832031 23.367188 66.476562 23.933594 66.34375 L 23.964844 66.34375 C 23.957031 66.320312 23.945312 66.296875 23.929688 66.277344 L 23.871094 66.25 C 22.316406 65.882812 20.929688 65.171875 19.71875 64.117188 C 18.824219 63.277344 17.980469 62.378906 17.082031 61.539062 C 16.367188 60.867188 14.777344 59.496094 14.667969 59.4375 C 14.660156 59.464844 14.660156 59.496094 14.667969 59.523438 C 14.902344 59.835938 15.738281 61.761719 16.226562 62.742188 C 16.539062 63.441406 16.96875 64.058594 17.515625 64.589844 C 18.0625 65.125 18.6875 65.539062 19.390625 65.832031 C 19.425781 65.863281 19.390625 65.910156 19.273438 65.894531 L 19.25 65.894531 C 17.644531 65.660156 16.03125 65.519531 14.40625 65.46875 C 13.144531 65.453125 11.90625 65.269531 10.695312 64.90625 C 9.828125 64.636719 9.042969 64.21875 8.335938 63.644531 C 8.300781 63.628906 8.261719 63.628906 8.226562 63.644531 C 8.699219 64.355469 9.257812 64.988281 9.902344 65.542969 C 10.546875 66.097656 11.25 66.558594 12.015625 66.921875 C 12.785156 67.28125 13.585938 67.535156 14.417969 67.679688 C 15.253906 67.820312 16.089844 67.851562 16.933594 67.761719 M 15.679688 64.417969 L 16.003906 64.476562 C 16.007812 64.457031 16.007812 64.4375 16.003906 64.417969 L 15.914062 64.324219 C 14.957031 63.316406 14.265625 62.152344 13.835938 60.824219 C 13.492188 59.871094 13.175781 58.902344 12.84375 57.941406 C 12.230469 56.148438 11.339844 54.511719 10.167969 53.027344 C 9.007812 51.550781 10.167969 53.027344 10.167969 53.027344 C 10.15625 53.058594 10.15625 53.089844 10.167969 53.121094 C 10.574219 54.332031 10.59375 55.6875 10.773438 56.949219 C 11.261719 60.546875 12.902344 62.242188 12.957031 62.3125 C 13.015625 62.378906 12.957031 62.410156 12.921875 62.378906 L 12.714844 62.222656 C 11.625 61.359375 10.441406 60.660156 9.160156 60.121094 C 8.148438 59.683594 7.1875 59.160156 6.269531 58.546875 C 5.207031 57.859375 4.265625 57.027344 3.449219 56.054688 C 3.414062 56.039062 3.378906 56.039062 3.34375 56.054688 C 3.484375 56.53125 3.667969 56.992188 3.894531 57.433594 C 4.746094 59.136719 5.9375 60.546875 7.46875 61.664062 C 8.9375 62.804688 10.585938 63.515625 12.417969 63.792969 C 13.519531 63.980469 14.609375 64.25 15.710938 64.476562 M 6.621094 56.976562 C 7.726562 57.726562 9.40625 58.722656 9.992188 59.109375 C 10.578125 59.492188 10.035156 59.035156 10.019531 58.996094 C 10.003906 58.960938 10.019531 58.996094 10.019531 58.972656 C 9.28125 57.507812 9.171875 55.902344 9.042969 54.28125 C 8.933594 52.878906 9.1875 51.128906 9.113281 49.769531 C 9.007812 48.636719 8.777344 47.53125 8.417969 46.449219 C 8.410156 46.394531 8.390625 46.34375 8.363281 46.292969 C 8.335938 46.242188 8.304688 46.34375 8.292969 46.367188 C 8.285156 46.386719 8.292969 46.367188 8.292969 46.367188 C 8.148438 48.035156 7.558594 49.515625 7.339844 50.886719 C 7.101562 52.523438 7.214844 54.136719 7.6875 55.71875 C 7.710938 55.789062 7.644531 55.804688 7.625 55.765625 C 6.484375 54.238281 5.238281 52.808594 3.882812 51.472656 C 2.695312 50.316406 1.828125 48.949219 1.285156 47.375 C 0.753906 45.820312 1.21875 47.316406 1.203125 47.328125 C 1.199219 47.398438 1.199219 47.472656 1.203125 47.542969 C 1.1875 49.742188 1.804688 51.742188 3.058594 53.539062 C 4.027344 54.917969 5.210938 56.0625 6.617188 56.976562 M 6.035156 51.960938 C 6.035156 51.960938 6.085938 51.90625 6.066406 51.78125 C 5.9375 50.320312 6.136719 48.90625 6.664062 47.539062 C 7.488281 45.375 8.058594 43.148438 8.378906 40.851562 C 8.410156 40.546875 8.429688 40.238281 8.429688 39.933594 C 8.394531 39.9375 8.367188 39.949219 8.339844 39.972656 C 7.90625 40.921875 7.402344 41.832031 6.828125 42.699219 C 5.992188 44.035156 5.039062 45.359375 4.917969 46.953125 C 4.886719 47.414062 4.898438 47.875 4.949219 48.332031 C 5 48.789062 4.949219 48.382812 4.898438 48.371094 C 4.882812 48.367188 4.875 48.355469 4.871094 48.339844 C 4.765625 47.953125 4.652344 47.484375 4.507812 46.980469 C 3.738281 44.355469 1.910156 42.683594 1.910156 38.824219 C 1.910156 38.824219 1.859375 38.738281 1.832031 38.738281 C 1.730469 38.953125 1.644531 39.175781 1.578125 39.402344 C -0.0703125 44.769531 3.269531 48.621094 3.9375 49.4375 C 4.601562 50.257812 5.542969 51.234375 6.050781 51.980469 M 3.660156 41.3125 C 4.015625 42.363281 4.492188 43.871094 4.597656 44.265625 C 4.597656 44.265625 4.664062 44.265625 4.671875 44.21875 C 5.210938 42.695312 5.949219 41.277344 6.886719 39.964844 L 7.042969 39.75 C 7.839844 38.804688 8.511719 37.773438 9.058594 36.660156 C 9.402344 35.789062 9.703125 34.90625 9.957031 34.003906 C 10.210938 33.101562 9.957031 34.003906 9.914062 34.003906 C 9.886719 33.996094 9.855469 33.996094 9.828125 34.003906 C 9.242188 34.851562 8.5625 35.613281 7.789062 36.292969 C 6.8125 37.101562 6.054688 37.710938 5.464844 38.890625 C 5.402344 39.019531 5.328125 39.191406 5.25 39.375 C 5.074219 39.800781 4.898438 40.308594 4.890625 40.320312 C 4.886719 40.332031 4.828125 40.398438 4.808594 40.320312 C 4.789062 40.242188 4.90625 38.875 4.917969 38.6875 C 4.917969 37.558594 4.816406 36.4375 4.613281 35.328125 C 4.347656 33.914062 4.371094 32.503906 4.679688 31.097656 C 4.679688 30.984375 4.734375 30.871094 4.765625 30.761719 C 4.796875 30.652344 4.808594 30.609375 4.835938 30.527344 C 4.835938 30.492188 4.820312 30.460938 4.796875 30.4375 C 3.328125 32.238281 2.503906 35.535156 2.859375 38.074219 C 3.078125 39.140625 3.355469 40.191406 3.691406 41.222656 M 5.6875 32.972656 C 5.722656 33.746094 5.757812 34.863281 5.765625 35.703125 L 5.765625 36.597656 C 5.765625 36.796875 5.820312 36.597656 5.820312 36.597656 C 6.613281 35.574219 7.5 34.644531 8.476562 33.804688 C 9.234375 33.167969 10.035156 32.558594 10.746094 31.875 C 11.636719 30.894531 12.214844 29.746094 12.480469 28.441406 C 12.492188 28.386719 12.503906 28.328125 12.507812 28.273438 C 12.472656 28.269531 12.445312 28.277344 12.417969 28.300781 C 12.316406 28.429688 12.214844 28.5625 12.117188 28.699219 C 11.574219 29.421875 10.914062 30.019531 10.144531 30.488281 C 8.804688 31.339844 7.867188 31.984375 7.109375 33.027344 C 7.074219 33.089844 7.007812 33.0625 7.027344 32.996094 C 7.253906 32.242188 7.355469 31.777344 7.515625 31.109375 C 7.773438 30.023438 7.894531 28.578125 8.300781 27.621094 C 8.558594 27.023438 8.921875 26.496094 9.390625 26.046875 C 9.855469 25.597656 9.390625 26.046875 9.390625 26.046875 C 9.398438 26.011719 9.398438 25.976562 9.390625 25.941406 C 9.300781 25.96875 9.210938 26.003906 9.125 26.039062 C 7.746094 26.757812 6.761719 27.84375 6.175781 29.296875 C 5.804688 30.171875 5.632812 31.082031 5.65625 32.035156 L 5.65625 32.96875 M 8.625 30.304688 L 8.664062 30.304688 C 9.042969 30.007812 10.570312 28.804688 11.09375 28.273438 C 11.847656 27.542969 12.5 26.726562 13.046875 25.832031 C 13.636719 24.914062 14.332031 24.082031 15.125 23.339844 L 15.308594 23.179688 C 15.308594 23.179688 15.332031 23.109375 15.308594 23.082031 C 13.863281 23.429688 12.558594 24.066406 11.394531 24.996094 C 9.386719 26.601562 8.695312 29.855469 8.617188 30.292969 M 31.273438 47.996094 C 31.433594 47.753906 31.039062 47.605469 30.9375 48.019531 C 30.832031 48.4375 31.117188 48.234375 31.273438 47.996094 M 35.566406 37.96875 C 35.410156 37.890625 34.785156 38.660156 34.882812 38.789062 C 35.160156 38.5625 35.394531 38.285156 35.566406 37.96875 M 35.699219 37.832031 C 35.792969 37.882812 36.21875 37.652344 36.132812 37.59375 C 36.042969 37.539062 35.566406 37.300781 35.554688 37.441406 C 35.554688 37.667969 35.605469 37.785156 35.699219 37.832031 M 43.261719 44.910156 C 43.476562 44.863281 43.449219 44.515625 43.261719 44.527344 C 43.078125 44.539062 42.851562 44.820312 42.910156 44.828125 C 43.054688 44.828125 43.160156 44.9375 43.273438 44.910156 M 40.527344 37.320312 C 40.355469 37.320312 40.3125 37.511719 40.472656 37.59375 C 40.613281 37.625 40.761719 37.601562 40.890625 37.53125 C 41 37.457031 41.128906 37.371094 41.109375 37.195312 C 41.085938 37.023438 40.847656 36.792969 40.976562 36.671875 C 41.109375 36.550781 41.253906 36.746094 41.386719 36.671875 C 41.523438 36.597656 41.539062 36.511719 41.539062 36.371094 C 41.539062 36.230469 41.472656 35.917969 41.246094 35.917969 C 41.023438 35.917969 40.789062 36.371094 40.773438 36.398438 C 40.726562 36.527344 40.726562 36.652344 40.773438 36.78125 C 40.875 37.015625 40.835938 37.304688 40.519531 37.304688 M 44.230469 37.332031 C 44.230469 37.4375 44.519531 38.164062 44.550781 38.382812 C 44.582031 38.605469 44.644531 39.171875 44.800781 39.113281 C 44.957031 39.054688 44.890625 38.707031 44.867188 38.585938 C 44.804688 38.167969 44.707031 37.753906 44.570312 37.355469 C 44.496094 37.105469 44.152344 36.304688 44.050781 36.335938 C 43.953125 36.367188 44.222656 36.917969 44.265625 37.101562 C 44.28125 37.191406 44.28125 37.28125 44.265625 37.371094 M 42.308594 27.722656 C 42.488281 27.792969 42.488281 27.449219 42.175781 27.195312 C 41.867188 26.945312 41.457031 27.066406 41.566406 27.195312 C 41.789062 27.402344 42.039062 27.578125 42.308594 27.722656 M 33.867188 25.269531 C 33.496094 25.03125 33.804688 24.703125 33.507812 24.476562 C 33.164062 24.355469 32.855469 24.414062 32.582031 24.660156 C 32.335938 24.984375 32.90625 24.878906 33.101562 24.96875 C 33.300781 25.058594 33.832031 25.496094 33.917969 25.414062 C 34.007812 25.335938 33.917969 25.308594 33.859375 25.269531 M 36.09375 24.132812 C 35.601562 23.902344 33.738281 23.914062 33.785156 24.40625 C 33.832031 24.902344 34.859375 24.433594 35.128906 24.40625 C 35.398438 24.382812 36.53125 24.359375 36.09375 24.132812 M 30.96875 46.105469 C 30.875 46.054688 30.667969 46.144531 30.640625 46.050781 C 30.613281 45.957031 30.457031 45.972656 30.496094 46.050781 C 30.53125 46.128906 30.449219 46.230469 30.53125 46.335938 C 30.6875 46.460938 30.839844 46.460938 30.992188 46.335938 C 31.066406 46.253906 31.066406 46.171875 30.992188 46.09375 M 29.953125 42.289062 C 30.109375 42.289062 30.105469 42.167969 30.195312 42.175781 C 30.28125 42.179688 30.195312 42.296875 30.367188 42.296875 C 30.535156 42.296875 30.683594 41.890625 30.183594 41.890625 C 29.777344 41.890625 29.835938 42.285156 29.953125 42.289062 M 30.597656 42.707031 C 30.292969 42.625 30.355469 42.804688 30.164062 42.828125 C 29.851562 42.859375 30.132812 42.589844 29.976562 42.464844 C 29.910156 42.410156 29.722656 42.683594 29.710938 42.851562 C 29.710938 42.9375 29.710938 43.214844 29.832031 43.21875 C 29.949219 43.226562 30.667969 43.308594 30.902344 43.367188 C 31.132812 43.425781 30.902344 42.777344 30.597656 42.707031 M 27.15625 46.460938 C 27.25 46.460938 27.316406 46.121094 27.257812 45.9375 C 27.203125 45.75 26.894531 45.894531 26.871094 45.972656 C 26.84375 46.050781 27.0625 46.445312 27.15625 46.445312 M 22.636719 46.414062 C 22.636719 46.265625 22.636719 45.835938 22.539062 45.75 C 22.4375 45.667969 22.449219 45.824219 22.375 45.816406 C 22.304688 45.804688 22.324219 45.609375 22.25 45.609375 C 22.179688 45.609375 22.277344 45.953125 22.355469 46.136719 C 22.433594 46.320312 22.621094 46.660156 22.636719 46.398438 M 22.527344 45.347656 C 22.621094 45.003906 22.675781 44.652344 22.683594 44.296875 C 22.65625 44.023438 22.515625 43.773438 22.480469 43.773438 C 22.445312 43.773438 22.480469 43.960938 22.511719 44.222656 C 22.488281 44.515625 22.429688 44.800781 22.339844 45.078125 C 22.339844 45.199219 22.453125 45.480469 22.527344 45.320312 M 16.710938 58.183594 C 15.714844 57.175781 14.824219 56.082031 14.039062 54.898438 C 13.257812 53.714844 12.597656 52.464844 12.058594 51.148438 C 11.519531 49.832031 11.113281 48.476562 10.835938 47.078125 C 10.5625 45.683594 10.425781 44.273438 10.425781 42.847656 C 10.421875 30.953125 20.101562 21.167969 31.867188 21.167969 C 43.628906 21.167969 53.308594 30.953125 53.308594 42.847656 C 53.308594 54.742188 43.628906 64.527344 31.867188 64.527344 C 30.457031 64.53125 29.0625 64.394531 27.683594 64.121094 C 26.300781 63.84375 24.960938 63.433594 23.660156 62.890625 C 22.359375 62.34375 21.125 61.675781 19.953125 60.886719 C 18.785156 60.09375 17.703125 59.191406 16.707031 58.183594 M 11.367188 43.324219 C 11.417969 45.917969 11.929688 48.410156 12.910156 50.804688 C 13.890625 53.199219 15.269531 55.332031 17.046875 57.203125 L 19.378906 54.847656 C 18.917969 54.359375 18.488281 53.847656 18.089844 53.308594 C 17.898438 53.238281 17.734375 53.128906 17.597656 52.972656 C 17.398438 52.726562 17.296875 52.359375 17.203125 52.359375 C 17.109375 52.359375 17.203125 52.589844 16.984375 52.621094 C 16.691406 52.664062 16.289062 51.9375 16.128906 51.675781 C 15.964844 51.414062 15.609375 51.359375 15.476562 51.070312 C 15.4375 50.988281 15.332031 50.726562 15.234375 50.882812 C 15.078125 51.140625 14.527344 50.316406 14.386719 50.359375 C 14.246094 50.398438 14.386719 50.582031 14.289062 50.65625 C 14.191406 50.730469 13.675781 50.027344 13.5 50.105469 C 13.320312 50.183594 13.300781 50.277344 13.289062 50.484375 C 13.28125 50.6875 13.546875 51.246094 13.453125 51.289062 C 13.359375 51.328125 12.65625 49.628906 12.800781 49.554688 C 12.949219 49.480469 12.871094 49.628906 12.964844 49.554688 C 13.058594 49.480469 12.894531 49.375 12.855469 49.191406 C 12.8125 49.007812 12.640625 48.992188 12.625 48.777344 C 12.609375 48.5625 12.910156 48.636719 12.910156 48.53125 C 12.898438 48.414062 12.933594 48.316406 13.019531 48.234375 C 13.121094 48.148438 13.351562 48.234375 13.398438 47.9375 C 13.445312 47.636719 13.570312 47.9375 13.597656 48.109375 C 13.625 48.285156 14.191406 48.386719 14.214844 48.234375 C 14.242188 48.082031 13.992188 48.140625 13.992188 48.058594 C 13.992188 47.894531 14.296875 48.058594 14.511719 48.058594 C 14.605469 48.058594 14.769531 47.914062 14.980469 48.027344 C 15.140625 48.125 15.3125 48.191406 15.5 48.226562 C 14.976562 46.617188 14.695312 44.96875 14.652344 43.277344 L 11.367188 43.277344 M 30.042969 38.492188 C 30.199219 38.214844 30.5625 37.898438 30.5625 37.96875 C 30.5625 38.035156 30.34375 38.21875 30.226562 38.433594 C 30.605469 38.289062 31 38.195312 31.402344 38.15625 L 31.402344 34.832031 C 29.566406 34.941406 27.960938 35.613281 26.589844 36.855469 L 28.910156 39.203125 C 29.179688 38.976562 29.46875 38.789062 29.777344 38.628906 L 30.027344 38.515625 M 28.289062 43.933594 L 28.289062 43.707031 C 28.285156 43.695312 28.285156 43.679688 28.289062 43.667969 C 28.316406 43.628906 28.355469 43.617188 28.402344 43.628906 C 28.484375 43.628906 28.589844 43.691406 28.6875 43.699219 C 28.773438 43.707031 28.839844 43.675781 28.890625 43.605469 C 28.917969 43.566406 28.941406 43.523438 28.960938 43.484375 C 28.980469 43.449219 28.988281 43.410156 28.992188 43.371094 C 28.996094 43.359375 28.996094 43.34375 28.992188 43.332031 C 28.992188 43.292969 28.925781 43.285156 28.832031 43.332031 L 28.777344 43.332031 C 28.738281 43.335938 28.699219 43.335938 28.660156 43.332031 L 28.609375 43.332031 C 28.554688 43.324219 28.511719 43.296875 28.480469 43.25 C 28.464844 43.234375 28.457031 43.214844 28.449219 43.195312 C 28.4375 43.167969 28.425781 43.148438 28.410156 43.125 C 28.347656 43.042969 28.269531 42.984375 28.179688 42.941406 C 28.132812 42.914062 28.085938 42.882812 28.046875 42.847656 C 28.023438 42.832031 28 42.808594 27.980469 42.785156 L 27.933594 42.730469 L 27.902344 42.699219 L 27.707031 42.699219 C 27.574219 42.679688 27.460938 42.71875 27.367188 42.816406 L 27.3125 42.875 L 27.257812 42.941406 C 27.238281 42.96875 27.21875 43 27.207031 43.03125 C 27.164062 43.101562 27.128906 43.179688 27.101562 43.257812 C 26.835938 43.960938 26.527344 43.746094 26.582031 43.996094 C 26.582031 44.027344 26.660156 44.050781 26.769531 44.054688 L 27.539062 44.054688 L 27.605469 44.027344 L 27.714844 43.988281 C 27.746094 43.972656 27.78125 43.964844 27.8125 43.960938 C 27.960938 43.921875 28.078125 43.964844 28.167969 44.085938 C 28.214844 44.167969 28.246094 44.261719 28.261719 44.355469 L 28.261719 44.277344 C 28.265625 44.261719 28.265625 44.246094 28.261719 44.230469 L 28.261719 44.175781 M 22.027344 49.667969 C 22.171875 49.980469 22.421875 50.238281 22.429688 50.605469 C 22.433594 50.667969 22.433594 50.734375 22.429688 50.800781 C 22.59375 51.007812 22.769531 51.21875 22.945312 51.417969 L 25.273438 49.066406 C 24.132812 47.789062 23.417969 46.304688 23.125 44.613281 C 23.050781 44.636719 22.992188 44.617188 22.953125 44.550781 C 22.90625 44.46875 22.953125 44.386719 23.078125 44.300781 C 23.039062 44.050781 23.019531 43.777344 23.003906 43.539062 L 21.445312 43.539062 C 21.445312 43.792969 21.558594 44.148438 21.398438 44.277344 C 21.238281 44.402344 21.078125 44.277344 20.953125 44.277344 C 20.65625 44.316406 20.589844 44.679688 20.667969 44.925781 C 20.738281 45.074219 20.773438 45.238281 20.761719 45.398438 C 20.761719 45.5625 20.644531 45.695312 20.910156 45.835938 C 21.175781 45.976562 21.539062 46.460938 21.507812 46.550781 C 21.476562 46.640625 21.226562 46.445312 21.210938 46.644531 C 21.195312 46.84375 21.566406 46.613281 21.542969 47.027344 C 21.535156 47.257812 21.574219 47.488281 21.660156 47.699219 C 21.835938 47.992188 21.9375 48.324219 21.957031 48.667969 C 21.898438 49 21.925781 49.332031 22.027344 49.652344 M 19.980469 45.671875 C 20.3125 45.792969 20.949219 45.519531 20.5 44.996094 C 20.3125 44.773438 20.628906 44.144531 20.675781 44.023438 C 20.722656 43.902344 21.015625 43.722656 21.101562 43.5 L 19.726562 43.5 C 19.75 44.222656 19.839844 44.941406 19.992188 45.648438 M 20.25 54.101562 C 20.007812 53.945312 19.777344 53.84375 19.636719 53.929688 L 19.605469 53.929688 C 19.730469 54.070312 19.855469 54.210938 19.988281 54.347656 L 20.25 54.085938 M 23.742188 39.433594 C 24.125 38.550781 24.636719 37.753906 25.273438 37.039062 L 22.976562 34.550781 C 21.988281 35.625 21.21875 36.839844 20.664062 38.195312 C 20.109375 39.550781 19.804688 40.960938 19.753906 42.425781 L 21.375 42.425781 C 21.648438 41.984375 21.554688 41.648438 21.648438 41.375 C 21.746094 41.132812 21.867188 40.902344 22.011719 40.6875 C 22.132812 40.496094 22.265625 40.273438 22.53125 40.273438 C 23.050781 40.273438 23.195312 39.988281 23.527344 39.832031 C 23.863281 39.675781 24.457031 39.585938 24.390625 39.40625 C 24.324219 39.230469 23.15625 39.757812 23.128906 39.664062 C 23.101562 39.570312 23.503906 39.523438 23.679688 39.359375 C 23.710938 39.332031 23.746094 39.308594 23.785156 39.292969 M 25.964844 37.554688 C 25.546875 38.019531 25.191406 38.53125 24.894531 39.085938 L 24.992188 39.039062 C 25.363281 38.84375 25.742188 38.816406 26.136719 38.949219 C 26.429688 39.117188 26.703125 39.308594 26.957031 39.535156 C 27.03125 39.585938 27.0625 39.480469 27.398438 39.433594 C 27.542969 39.433594 27.574219 39.554688 27.777344 39.582031 C 27.847656 39.585938 27.917969 39.585938 27.984375 39.582031 L 25.964844 37.539062 M 23.109375 41.738281 C 22.953125 41.664062 22.789062 41.617188 22.621094 41.601562 C 22.339844 41.566406 22.121094 41.671875 21.964844 41.914062 C 21.867188 42.0625 21.835938 42.230469 21.871094 42.40625 L 23.046875 42.40625 C 23.046875 42.179688 23.078125 41.960938 23.109375 41.738281 M 24.09375 44.402344 C 24.375 45.839844 25 47.105469 25.964844 48.199219 L 28.289062 45.851562 C 28.089844 45.617188 27.917969 45.367188 27.769531 45.101562 C 27.734375 45.140625 27.703125 45.179688 27.679688 45.226562 C 27.632812 45.332031 27.679688 45.683594 27.550781 45.832031 C 27.417969 45.976562 26.867188 45.40625 26.707031 45.351562 C 26.632812 45.332031 26.5625 45.347656 26.5 45.394531 C 26.4375 45.441406 26.40625 45.507812 26.40625 45.585938 L 26.40625 45.589844 C 26.433594 45.773438 26.40625 45.839844 26.320312 45.855469 C 26.230469 45.871094 25.855469 45.605469 26.027344 45.535156 C 26.199219 45.46875 25.976562 45.285156 25.886719 45.214844 C 25.800781 45.148438 25.503906 45.214844 25.394531 45.054688 C 25.285156 44.914062 25.148438 44.808594 24.984375 44.742188 C 24.9375 44.742188 24.707031 44.632812 24.558594 44.710938 C 24.40625 44.789062 24.3125 44.648438 24.226562 44.558594 L 24.074219 44.402344 M 25.9375 36.230469 C 26.691406 35.542969 27.539062 35 28.476562 34.609375 C 29.414062 34.214844 30.390625 33.992188 31.402344 33.941406 L 31.402344 30.621094 C 29.953125 30.671875 28.558594 30.980469 27.21875 31.539062 C 25.875 32.101562 24.675781 32.882812 23.613281 33.882812 L 25.929688 36.230469 M 22.960938 33.230469 C 24.109375 32.144531 25.410156 31.296875 26.859375 30.6875 C 28.3125 30.078125 29.824219 29.746094 31.394531 29.691406 L 31.394531 26.375 C 29.390625 26.433594 27.46875 26.847656 25.617188 27.625 C 23.769531 28.398438 22.117188 29.480469 20.660156 30.871094 L 22.976562 33.21875 M 20.011719 31.527344 C 18.628906 33.003906 17.550781 34.679688 16.785156 36.558594 C 16.015625 38.4375 15.605469 40.394531 15.554688 42.425781 L 18.832031 42.425781 C 18.886719 40.839844 19.214844 39.3125 19.820312 37.84375 C 20.421875 36.375 21.261719 35.0625 22.335938 33.902344 Z M 15.554688 43.320312 C 15.597656 45 15.898438 46.660156 16.445312 48.246094 L 16.496094 48.246094 C 16.839844 48.273438 17.171875 48.21875 17.488281 48.078125 C 17.808594 47.828125 17.488281 46.921875 17.710938 46.550781 C 17.960938 46.082031 18.582031 44.972656 18.75 44.972656 C 18.917969 44.972656 18.910156 45.089844 18.996094 45.109375 C 18.894531 44.519531 18.832031 43.921875 18.8125 43.320312 Z M 31.410156 60.285156 C 29.28125 60.226562 27.238281 59.789062 25.273438 58.964844 C 23.308594 58.140625 21.554688 56.988281 20.011719 55.503906 L 17.683594 57.859375 C 19.535156 59.652344 21.640625 61.046875 24.011719 62.039062 C 26.378906 63.027344 28.847656 63.550781 31.410156 63.597656 Z M 31.410156 56.039062 C 29.96875 55.996094 28.570312 55.710938 27.222656 55.191406 C 25.875 54.671875 24.648438 53.945312 23.539062 53.011719 C 23.585938 53.066406 23.625 53.125 23.664062 53.1875 C 23.816406 53.453125 24.34375 53.988281 24.007812 54.203125 C 23.667969 54.417969 23.269531 54.261719 23.007812 54.253906 C 22.75 54.25 22.3125 54.679688 22.074219 54.722656 C 21.804688 54.785156 21.546875 54.753906 21.296875 54.636719 C 21.203125 54.59375 21.113281 54.539062 21.03125 54.476562 L 20.660156 54.847656 C 22.117188 56.246094 23.769531 57.332031 25.621094 58.109375 C 27.476562 58.886719 29.402344 59.304688 31.410156 59.359375 Z M 31.410156 54.875 C 30.960938 54.933594 30.519531 54.902344 30.085938 54.785156 C 29.742188 54.542969 29.332031 54.308594 29.285156 54.117188 C 29.203125 53.789062 28.765625 53.539062 28.765625 53.230469 C 28.765625 52.921875 29.238281 52.769531 29.113281 52.421875 C 28.988281 52.074219 29.277344 51.792969 29.773438 51.550781 C 28.332031 51.191406 27.0625 50.511719 25.960938 49.507812 L 23.621094 51.882812 C 24.683594 52.882812 25.886719 53.664062 27.226562 54.222656 C 28.566406 54.785156 29.964844 55.089844 31.414062 55.136719 Z M 31.269531 50.550781 C 31.554688 50.765625 31.890625 50.484375 32.121094 50.441406 C 32.46875 50.382812 32.835938 50.285156 33.160156 50.253906 C 33.480469 50.222656 33.160156 50.710938 33.347656 50.730469 C 33.535156 50.75 34.597656 50.929688 34.671875 50.699219 C 34.742188 50.46875 34.742188 50.425781 34.957031 50.378906 C 35.34375 50.355469 35.703125 50.238281 36.03125 50.03125 C 36.15625 49.9375 36.417969 49.90625 36.488281 49.757812 C 36.5625 49.613281 36.4375 48.945312 36.1875 49.054688 C 36.070312 49.109375 35.917969 49.28125 35.667969 49.414062 C 35.417969 49.542969 35.269531 49.585938 35.101562 49.359375 C 34.9375 49.132812 35.191406 48.996094 35.316406 48.859375 C 35.507812 48.644531 35.683594 48.429688 35.898438 48.429688 C 35.980469 48.429688 36.417969 48.210938 36.386719 48.003906 C 36.355469 47.800781 35.820312 48.003906 35.699219 47.921875 C 35.582031 47.835938 35.699219 47.652344 35.636719 47.625 C 35.574219 47.601562 35.382812 47.859375 35.535156 48 C 35.605469 48.074219 35.410156 48.285156 35.183594 48.136719 C 34.960938 47.988281 34.96875 48.660156 34.984375 48.765625 C 35 48.871094 35.238281 48.851562 35.078125 49.058594 C 34.914062 49.269531 34.863281 49.113281 34.742188 49.21875 C 34.625 49.324219 34.574219 49.390625 34.742188 49.570312 C 34.914062 49.75 34.664062 49.984375 34.613281 49.726562 C 34.578125 49.558594 34.230469 49.613281 34.160156 49.417969 C 34.09375 49.222656 33.804688 49.246094 33.460938 49.058594 C 33.195312 48.925781 33.226562 49.328125 33.671875 49.433594 C 34.121094 49.539062 34.039062 49.566406 33.929688 49.804688 C 33.820312 50.046875 33.855469 49.652344 33.410156 49.535156 C 33.117188 49.453125 33.109375 49.296875 32.890625 49.300781 C 32.671875 49.308594 32.734375 49.527344 32.488281 49.46875 C 32.246094 49.414062 32.277344 49.675781 32.105469 49.75 C 31.933594 49.820312 31.90625 50.214844 31.699219 50.320312 C 31.382812 50.480469 30.738281 50.363281 30.769531 50.046875 C 30.800781 49.734375 30.8125 49.496094 30.992188 49.386719 C 31.175781 49.277344 31.414062 49.570312 31.632812 49.46875 C 31.851562 49.371094 31.808594 49.117188 31.667969 48.945312 C 31.628906 48.890625 31.457031 48.808594 31.460938 48.75 C 31.464844 48.691406 31.792969 48.65625 31.980469 48.546875 C 32.136719 48.394531 32.28125 48.234375 32.410156 48.0625 C 32.5 47.988281 32.679688 47.972656 32.695312 47.90625 C 32.710938 47.835938 32.574219 47.667969 32.582031 47.5625 C 32.59375 47.457031 32.636719 47.378906 32.710938 47.386719 C 32.789062 47.390625 32.890625 47.625 32.835938 47.679688 C 32.785156 47.730469 32.878906 47.847656 32.988281 47.804688 C 33.097656 47.761719 33.507812 47.605469 33.597656 47.578125 C 33.683594 47.554688 33.554688 47.183594 33.597656 47.121094 C 33.636719 47.058594 33.6875 47.121094 33.746094 47.085938 C 33.804688 47.050781 33.628906 46.964844 33.652344 46.839844 C 33.679688 46.710938 34.078125 46.632812 33.964844 46.558594 C 33.851562 46.488281 33.703125 46.695312 33.617188 46.738281 C 33.414062 46.828125 33.320312 46.609375 33.324219 46.441406 C 33.324219 46.355469 33.441406 46.066406 33.324219 46.007812 C 33.210938 45.953125 33.167969 46.277344 33.148438 46.34375 C 33.066406 46.511719 33.078125 46.714844 33.179688 46.871094 C 33.257812 47.015625 33.214844 47.527344 33.066406 47.585938 C 32.914062 47.640625 32.828125 47.320312 32.75 47.195312 C 32.730469 47.160156 32.703125 47.148438 32.667969 47.152344 L 32.667969 47.179688 L 32.613281 47.265625 C 32.613281 47.265625 32.578125 47.335938 32.546875 47.425781 C 32.527344 47.484375 32.488281 47.519531 32.433594 47.53125 C 32.257812 47.554688 32.085938 47.5625 31.914062 47.5625 L 31.714844 47.5625 C 31.738281 47.664062 31.769531 47.757812 31.808594 47.851562 C 31.902344 48.027344 32.074219 48.167969 32.042969 48.300781 C 32.011719 48.429688 31.480469 48.539062 31.441406 48.445312 C 31.398438 48.351562 31.574219 48.09375 31.558594 47.988281 C 31.558594 47.792969 31.433594 47.679688 31.445312 47.542969 C 30.511719 47.445312 29.683594 47.097656 28.960938 46.492188 L 26.640625 48.839844 C 27.839844 49.917969 29.234375 50.574219 30.820312 50.800781 C 31.046875 50.65625 31.140625 50.410156 31.316406 50.542969 M 34.308594 55.792969 C 33.667969 55.914062 33.019531 55.984375 32.371094 56.007812 L 32.371094 59.328125 C 33.671875 59.292969 34.96875 59.097656 36.222656 58.75 C 35.964844 58.53125 35.851562 58.171875 35.535156 58.0625 C 34.988281 57.875 34.84375 57.539062 35.132812 57.039062 C 35.292969 56.777344 35.230469 56.671875 35.046875 56.386719 C 34.863281 56.109375 34.617188 55.914062 34.308594 55.792969 M 32.371094 55.085938 C 32.894531 55.0625 33.414062 55.007812 33.929688 54.917969 C 33.785156 54.804688 33.625 54.777344 33.449219 54.832031 C 32.929688 54.980469 33.097656 54.554688 32.355469 54.660156 L 32.355469 55.085938 M 32.355469 63.566406 C 34.917969 63.519531 37.382812 62.996094 39.753906 62.007812 C 42.121094 61.015625 44.230469 59.621094 46.078125 57.828125 L 43.75 55.472656 C 42.539062 56.636719 41.1875 57.597656 39.699219 58.367188 C 39.210938 58.710938 38.691406 58.996094 38.140625 59.222656 C 37.949219 59.335938 37.746094 59.402344 37.527344 59.421875 C 37.460938 59.421875 37.398438 59.402344 37.339844 59.363281 C 35.71875 59.910156 34.050781 60.207031 32.339844 60.253906 L 32.339844 63.566406 M 41.464844 33.796875 C 41.46875 33.8125 41.46875 33.824219 41.464844 33.839844 C 41.460938 33.859375 41.449219 33.871094 41.433594 33.882812 C 41.976562 34.472656 42.460938 35.109375 42.886719 35.792969 C 42.941406 35.730469 42.980469 35.671875 43.050781 35.75 C 43.117188 35.832031 42.929688 36.128906 43.273438 36.066406 C 43.480469 36.023438 43.433594 36.292969 43.273438 36.441406 C 43.382812 36.628906 43.480469 36.828125 43.578125 37.023438 C 43.699219 37.082031 43.792969 37.144531 43.808594 37.226562 C 43.886719 37.472656 43.949219 37.722656 43.996094 37.972656 C 44.160156 38.390625 44.304688 38.820312 44.425781 39.253906 C 44.597656 39.113281 44.785156 39.191406 44.804688 39.433594 C 44.816406 39.6875 44.757812 39.9375 44.644531 40.164062 C 44.792969 40.890625 44.882812 41.628906 44.910156 42.371094 L 48.191406 42.371094 C 48.128906 40.203125 47.664062 38.128906 46.800781 36.144531 C 46.738281 36.199219 46.648438 36.203125 46.539062 36.34375 C 46.429688 36.488281 46.105469 36.292969 45.957031 36.109375 C 45.683594 35.761719 45.035156 34.800781 44.742188 34.75 C 44.453125 34.695312 44.316406 34.390625 44.0625 34.339844 C 43.808594 34.285156 43.484375 34.140625 43.445312 33.867188 L 43.445312 33.859375 C 43.445312 33.742188 43.402344 33.640625 43.320312 33.554688 C 43.238281 33.46875 43.136719 33.425781 43.019531 33.425781 C 42.707031 33.382812 42.449219 33.242188 42.246094 33.003906 L 41.460938 33.796875 M 43.460938 53.140625 C 43.582031 53.410156 43.609375 53.691406 43.546875 53.980469 L 43.730469 54.160156 C 45.109375 52.6875 46.183594 51.015625 46.953125 49.144531 C 47.722656 47.269531 48.136719 45.320312 48.191406 43.292969 L 44.910156 43.292969 C 44.855469 44.882812 44.527344 46.410156 43.925781 47.875 C 43.324219 49.34375 42.484375 50.65625 41.414062 51.816406 L 42.59375 53.015625 C 42.601562 53 42.613281 52.984375 42.617188 52.96875 C 42.683594 52.75 42.707031 52.519531 42.691406 52.289062 C 42.691406 52.164062 43.152344 52.195312 43.210938 52.402344 C 43.285156 52.652344 43.378906 52.902344 43.484375 53.140625 M 40.78125 55.421875 C 40.640625 55.683594 41.191406 55.800781 41.085938 56.050781 C 40.980469 56.304688 40.566406 56.640625 40.632812 56.765625 C 41.519531 56.195312 42.34375 55.546875 43.105469 54.816406 L 40.789062 52.472656 C 40.628906 52.628906 40.457031 52.773438 40.269531 52.914062 C 40.230469 53.1875 40.269531 53.398438 40.59375 53.5 C 40.914062 53.597656 41.53125 53.972656 41.410156 54.324219 C 41.285156 54.675781 40.925781 55.105469 40.757812 55.421875 M 42.160156 41.816406 C 42.34375 42.074219 41.734375 42 41.605469 42.34375 C 41.597656 42.359375 41.589844 42.371094 41.578125 42.386719 L 44 42.386719 C 44 42.035156 43.953125 41.6875 43.910156 41.335938 L 43.859375 41.441406 C 43.679688 41.824219 43.648438 41.59375 43.664062 41.441406 C 43.691406 41.222656 43.753906 41.015625 43.839844 40.816406 L 43.777344 40.480469 C 43.683594 40.597656 43.570312 40.683594 43.433594 40.742188 C 43.332031 40.792969 43.226562 41.046875 43.191406 41.144531 C 43.152344 41.246094 42.875 41.121094 42.671875 41.222656 C 42.292969 41.410156 41.898438 41.441406 42.175781 41.839844 M 42.628906 37.148438 C 42.125 36.191406 41.511719 35.316406 40.785156 34.523438 L 38.464844 36.871094 C 38.855469 37.320312 39.203125 37.804688 39.5 38.324219 C 39.859375 38.359375 40.152344 38.515625 40.386719 38.792969 C 40.554688 39.011719 41.042969 39.453125 40.972656 39.652344 C 40.898438 39.855469 41.027344 39.925781 41.136719 40.007812 C 41.246094 40.085938 41.429688 40.121094 41.523438 40.007812 C 41.695312 39.785156 41.71875 39.480469 41.949219 39.300781 C 42.175781 39.125 42.796875 39.738281 42.796875 39.859375 C 42.796875 39.980469 42.644531 40.011719 42.601562 40.226562 C 42.546875 40.527344 42.296875 40.878906 42.601562 40.976562 C 43.019531 41.125 43.070312 40.976562 43.273438 40.65625 C 43.363281 40.519531 43.347656 40.300781 43.445312 40.167969 C 43.511719 40.09375 43.59375 40.035156 43.683594 39.988281 C 43.53125 39.335938 43.320312 38.699219 43.058594 38.082031 C 43 38.015625 42.925781 37.96875 42.84375 37.941406 C 42.691406 37.890625 42.773438 37.757812 42.578125 37.695312 C 42.378906 37.632812 42.265625 37.558594 42.246094 37.167969 C 42.222656 36.78125 42.515625 37.273438 42.582031 37.21875 C 42.648438 37.160156 42.613281 37.183594 42.628906 37.164062 M 38.710938 38.78125 C 38.492188 38.410156 38.246094 38.0625 37.96875 37.730469 C 37.871094 37.734375 37.777344 37.714844 37.6875 37.679688 L 36.925781 38.453125 C 37.070312 38.492188 37.230469 38.453125 37.414062 38.519531 C 37.59375 38.585938 37.519531 37.945312 37.828125 37.996094 C 38.140625 38.042969 38.230469 38.261719 37.96875 38.363281 C 37.710938 38.460938 38.019531 38.609375 37.765625 38.699219 C 37.511719 38.789062 37.953125 38.988281 37.949219 39.082031 C 37.945312 39.175781 37.632812 39.253906 38.105469 39.402344 C 38.578125 39.550781 38.105469 39.003906 38.175781 38.925781 C 38.25 38.84375 38.515625 39.070312 38.585938 38.964844 C 38.660156 38.859375 38.65625 38.859375 38.710938 38.78125 M 37.8125 50.304688 C 37.648438 50.253906 36.738281 49.902344 36.742188 50.027344 C 36.75 50.152344 36.585938 50.0625 36.535156 50.117188 C 37.007812 50.417969 37.507812 50.660156 38.035156 50.839844 C 38.335938 50.925781 38.636719 50.9375 38.941406 50.871094 C 39.261719 50.808594 39.355469 50.957031 39.507812 50.953125 C 39.65625 50.945312 39.867188 50.648438 39.988281 50.46875 C 40.324219 49.988281 40.261719 49.941406 40.347656 49.847656 C 40.4375 49.753906 40.785156 50.488281 40.742188 50.953125 C 40.742188 51.023438 40.742188 51.09375 40.71875 51.160156 L 40.753906 51.191406 C 41.742188 50.117188 42.515625 48.902344 43.070312 47.546875 C 43.628906 46.191406 43.933594 44.78125 43.984375 43.316406 L 41.496094 43.316406 C 41.644531 43.523438 41.773438 43.742188 41.890625 43.972656 C 42.015625 44.234375 42.089844 44.648438 42.300781 44.667969 C 42.644531 44.703125 42.996094 44.988281 43.003906 45.230469 C 43.003906 45.730469 41.484375 45.851562 41.285156 45.789062 C 41.082031 45.726562 40.996094 45.726562 40.988281 45.992188 C 40.976562 46.261719 40.433594 46.304688 40.214844 46.488281 C 39.996094 46.671875 39.949219 47.066406 39.789062 47.328125 C 39.539062 47.625 39.265625 47.894531 38.96875 48.136719 C 38.597656 48.398438 37.898438 48.414062 38.21875 48.585938 C 38.449219 48.707031 38.960938 48.75 38.898438 48.628906 C 38.835938 48.507812 38.9375 48.476562 39.023438 48.59375 C 39.113281 48.707031 39.335938 48.507812 39.332031 48.351562 C 39.324219 48.195312 39.292969 47.957031 39.429688 47.953125 C 39.648438 47.953125 39.882812 47.683594 39.996094 47.710938 C 40.109375 47.738281 40.285156 48.015625 40.160156 48.875 C 40.054688 49.503906 39.824219 50.078125 39.464844 50.597656 C 39.292969 50.886719 39.117188 50.667969 38.882812 50.546875 C 38.542969 50.4375 38.199219 50.351562 37.84375 50.292969 M 46.691406 57.203125 C 48.46875 55.332031 49.847656 53.199219 50.828125 50.804688 C 51.808594 48.410156 52.320312 45.917969 52.367188 43.324219 L 49.089844 43.324219 C 49.035156 45.476562 48.601562 47.542969 47.785156 49.53125 C 46.96875 51.515625 45.828125 53.289062 44.363281 54.847656 L 46.691406 57.203125 M 52.375 42.425781 C 52.328125 39.832031 51.8125 37.332031 50.832031 34.933594 C 49.851562 32.53125 48.472656 30.398438 46.691406 28.523438 L 44.261719 30.984375 C 44.609375 31.53125 45.019531 32.027344 45.492188 32.472656 C 45.734375 32.726562 46.011719 32.96875 46.203125 33.1875 C 46.394531 33.410156 47.734375 35.070312 47.480469 35.289062 L 47.421875 35.34375 C 48.46875 37.570312 49.023438 39.914062 49.089844 42.378906 L 52.367188 42.378906 M 32.320312 25.421875 C 35.058594 25.488281 37.632812 26.179688 40.042969 27.496094 C 40.242188 27.476562 40.4375 27.429688 40.625 27.363281 C 40.921875 27.226562 41.492188 27.539062 41.773438 27.699219 C 42.054688 27.863281 42.21875 28.066406 42.496094 28.226562 C 42.910156 28.480469 43.191406 28.847656 43.335938 29.316406 C 43.441406 29.785156 43.730469 29.753906 43.585938 29.941406 C 43.511719 30.039062 43.621094 30.070312 43.761719 30.152344 L 46.042969 27.851562 C 44.195312 26.054688 42.085938 24.660156 39.71875 23.667969 C 37.347656 22.675781 34.882812 22.15625 32.320312 22.105469 Z M 32.320312 29.664062 C 33.664062 29.710938 34.96875 29.964844 36.234375 30.421875 C 37.503906 30.882812 38.671875 31.523438 39.742188 32.347656 C 39.507812 32.035156 39.273438 31.707031 39.160156 31.59375 C 38.957031 31.375 38.210938 31.109375 38.28125 30.984375 C 38.355469 30.855469 39.03125 31.402344 39.144531 31.304688 C 39.257812 31.203125 38.804688 30.566406 38.84375 30.546875 C 39.214844 30.816406 39.511719 31.15625 39.734375 31.558594 C 39.851562 31.734375 40.164062 31.648438 40.402344 31.816406 C 40.640625 31.984375 40.625 32.207031 40.800781 32.34375 C 40.832031 32.371094 41.207031 32.589844 40.988281 32.5625 C 40.925781 32.5625 40.832031 32.421875 40.757812 32.488281 C 40.6875 32.558594 40.785156 32.761719 40.914062 33.015625 L 42 31.914062 C 41.84375 31.585938 41.535156 31.160156 41.316406 31.109375 C 41.097656 31.054688 40.953125 31.238281 40.796875 31.371094 C 40.640625 31.503906 40.453125 31.542969 40.425781 31.457031 C 40.417969 31.308594 40.417969 31.160156 40.425781 31.015625 C 40.425781 30.886719 40.3125 30.789062 40.28125 30.667969 C 40.203125 30.378906 40.316406 30.058594 40.140625 29.871094 C 39.964844 29.625 39.8125 29.367188 39.679688 29.097656 C 39.441406 28.796875 39.285156 28.460938 39.207031 28.082031 C 37.03125 26.976562 34.730469 26.394531 32.296875 26.328125 Z M 32.320312 33.914062 C 33.332031 33.964844 34.308594 34.1875 35.246094 34.578125 C 36.183594 34.972656 37.03125 35.515625 37.78125 36.203125 L 40.101562 33.855469 C 39.039062 32.855469 37.835938 32.074219 36.496094 31.515625 C 35.152344 30.953125 33.757812 30.644531 32.308594 30.59375 Z M 32.320312 38.164062 C 32.628906 38.195312 32.9375 38.257812 33.238281 38.351562 C 33.316406 38.15625 33.511719 38.0625 33.667969 37.953125 C 33.824219 37.84375 34 37.675781 33.96875 38.027344 C 33.96875 38.230469 33.875 38.425781 33.714844 38.550781 C 34.039062 38.691406 34.347656 38.867188 34.628906 39.078125 L 34.8125 39.222656 L 35.128906 38.902344 C 35.125 38.890625 35.125 38.878906 35.128906 38.867188 C 35.128906 38.6875 35.386719 38.472656 35.691406 38.339844 L 36.730469 37.289062 L 36.652344 37.289062 C 36.515625 37.289062 36.316406 37.5625 36.183594 37.484375 C 36.046875 37.40625 36.636719 36.855469 36.90625 36.960938 L 37.023438 37.007812 L 37.15625 36.875 C 35.78125 35.636719 34.175781 34.960938 32.339844 34.855469 Z M 31.933594 39.070312 L 31.863281 39.070312 C 31.484375 39.070312 31.105469 39.128906 30.746094 39.238281 C 30.699219 39.292969 30.667969 39.339844 30.691406 39.375 C 30.78125 39.507812 31.054688 39.230469 31.09375 39.484375 C 31.128906 39.742188 30.785156 39.539062 30.816406 39.675781 C 30.847656 39.8125 31.070312 39.738281 31.078125 39.890625 C 31.054688 40.085938 30.972656 40.246094 30.828125 40.375 C 30.683594 40.46875 29.898438 40.574219 29.820312 40.757812 C 29.761719 40.921875 29.675781 41.066406 29.558594 41.199219 C 29.429688 41.339844 28.796875 41.722656 28.796875 41.816406 C 28.796875 42.050781 29.097656 41.753906 29.1875 41.660156 C 29.273438 41.566406 29.503906 41.519531 29.707031 41.402344 C 29.910156 41.289062 30.089844 41.800781 29.789062 41.824219 C 29.601562 41.824219 29.445312 42.347656 29.15625 42.265625 C 29.082031 42.238281 28.871094 42.105469 28.828125 42.265625 C 28.785156 42.421875 29.257812 42.425781 29.414062 42.53125 C 29.800781 42.789062 29.117188 42.769531 29.007812 42.84375 C 28.902344 42.914062 28.957031 43.058594 29.101562 43 C 29.25 42.941406 29.4375 42.789062 29.527344 43.03125 C 29.644531 43.363281 29.007812 44.566406 28.800781 44.4375 C 28.699219 44.363281 28.589844 44.464844 28.492188 44.507812 C 28.621094 44.777344 28.78125 45.03125 28.972656 45.261719 C 29.101562 45.054688 29.304688 44.738281 29.394531 44.738281 C 29.480469 44.738281 29.472656 44.636719 29.519531 44.554688 C 29.566406 44.46875 29.722656 44.554688 29.730469 44.414062 C 29.742188 44.269531 30.101562 44.066406 30.140625 43.855469 C 30.140625 43.746094 30.027344 43.628906 30.085938 43.539062 C 30.121094 43.457031 30.183594 43.40625 30.273438 43.382812 C 30.34375 43.355469 30.515625 43.53125 30.566406 43.457031 C 30.621094 43.382812 30.875 43.457031 31.085938 43.5625 C 31.175781 43.621094 31.347656 43.5625 31.449219 43.703125 C 31.554688 43.84375 31.449219 43.933594 31.449219 43.976562 C 31.449219 44.019531 31.539062 43.976562 31.582031 43.976562 C 31.621094 43.976562 31.195312 44.332031 31.25 44.5 C 31.300781 44.667969 30.859375 45.390625 30.730469 45.503906 C 30.597656 45.621094 30.28125 45.503906 30.171875 45.503906 C 30.0625 45.503906 30.03125 45.640625 29.851562 45.59375 C 29.6875 45.578125 29.53125 45.609375 29.390625 45.695312 C 30.089844 46.320312 30.910156 46.632812 31.847656 46.632812 C 32.046875 46.632812 32.246094 46.613281 32.441406 46.582031 C 32.550781 46.425781 32.617188 46.246094 32.636719 46.054688 C 32.632812 45.941406 32.652344 45.824219 32.6875 45.714844 C 32.738281 45.632812 33.039062 45.253906 33.164062 45.257812 C 33.289062 45.261719 33.34375 45.359375 33.496094 45.308594 C 33.792969 45.214844 33.980469 45.308594 33.984375 45.425781 C 33.992188 45.542969 33.605469 45.550781 33.621094 45.65625 C 33.636719 45.761719 33.90625 45.835938 34 45.730469 C 34.132812 45.585938 34.167969 45.417969 34.101562 45.230469 C 33.980469 45.078125 33.984375 45.015625 34.15625 45.074219 C 34.328125 45.132812 34.261719 44.691406 34.363281 44.550781 C 34.46875 44.40625 34.109375 44.480469 33.949219 44.507812 C 33.789062 44.535156 33.664062 44.195312 33.664062 44.082031 C 33.664062 43.964844 33.953125 44.375 34.105469 44.386719 C 34.3125 44.367188 34.433594 44.253906 34.472656 44.050781 C 34.472656 43.902344 34.152344 43.886719 34.101562 43.707031 C 34.074219 43.613281 34.363281 43.707031 34.34375 43.613281 C 34.324219 43.519531 34.375 43.332031 34.1875 43.25 C 34 43.171875 33.839844 42.578125 33.667969 42.542969 C 33.496094 42.507812 33.429688 42.683594 33.351562 42.746094 C 33.273438 42.808594 33.144531 42.699219 33.210938 42.636719 C 33.359375 42.519531 33.480469 42.378906 33.570312 42.210938 C 33.644531 41.960938 33.964844 42.210938 33.90625 41.875 C 33.851562 41.539062 33.527344 41.570312 33.675781 41.386719 C 33.761719 41.289062 33.769531 41.183594 33.699219 41.070312 C 33.628906 40.960938 33.53125 40.921875 33.402344 40.960938 C 33.265625 40.988281 33.113281 40.75 33.097656 40.550781 C 33.097656 40.441406 32.769531 40.457031 32.785156 40.335938 C 32.8125 40.101562 32.453125 40.074219 32.234375 40.089844 C 31.960938 40.03125 31.730469 39.894531 31.542969 39.679688 C 31.496094 39.597656 31.195312 39.753906 31.296875 39.433594 C 31.394531 39.113281 31.695312 39.492188 31.816406 39.398438 C 31.925781 39.328125 31.949219 39.238281 31.886719 39.125 M 31.367188 22.160156 C 28.804688 22.210938 26.339844 22.730469 23.96875 23.722656 C 21.601562 24.714844 19.492188 26.109375 17.644531 27.90625 L 19.972656 30.257812 C 21.511719 28.773438 23.265625 27.621094 25.230469 26.796875 C 27.195312 25.972656 29.242188 25.53125 31.367188 25.472656 L 31.367188 22.160156 M 16.996094 28.554688 C 15.230469 30.429688 13.859375 32.5625 12.890625 34.957031 C 11.917969 37.351562 11.410156 39.839844 11.371094 42.425781 L 14.648438 42.425781 C 14.699219 40.273438 15.128906 38.199219 15.945312 36.207031 C 16.757812 34.214844 17.898438 32.433594 19.367188 30.871094 L 17.035156 28.519531 " fill-opacity="1" fill-rule="nonzero"/></g><g fill="#0da0d8" fill-opacity="1"><g transform="translate(69.963858, 46.065324)"><g><path d="M 0.59375 -10.640625 C 0.59375 -13.710938 1.640625 -16.3125 3.734375 -18.4375 C 5.828125 -20.5625 8.347656 -21.625 11.296875 -21.625 C 14.273438 -21.625 16.800781 -20.5625 18.875 -18.4375 C 20.945312 -16.320312 21.984375 -13.722656 21.984375 -10.640625 C 21.984375 -7.523438 20.960938 -4.90625 18.921875 -2.78125 C 16.878906 -0.664062 14.335938 0.390625 11.296875 0.390625 C 8.191406 0.390625 5.628906 -0.660156 3.609375 -2.765625 C 1.597656 -4.867188 0.59375 -7.492188 0.59375 -10.640625 Z M 5.8125 -10.640625 C 5.8125 -9.523438 5.984375 -8.503906 6.328125 -7.578125 C 6.671875 -6.660156 7.269531 -5.882812 8.125 -5.25 C 8.988281 -4.613281 10.046875 -4.296875 11.296875 -4.296875 C 13.109375 -4.296875 14.472656 -4.914062 15.390625 -6.15625 C 16.304688 -7.394531 16.765625 -8.890625 16.765625 -10.640625 C 16.765625 -12.367188 16.296875 -13.851562 15.359375 -15.09375 C 14.421875 -16.34375 13.066406 -16.96875 11.296875 -16.96875 C 9.546875 -16.96875 8.191406 -16.34375 7.234375 -15.09375 C 6.285156 -13.851562 5.8125 -12.367188 5.8125 -10.640625 Z M 5.8125 -10.640625 "/></g></g></g><g fill="#0da0d8" fill-opacity="1"><g transform="translate(94.953677, 46.065324)"><g><path d="M 1.546875 -21.25 L 8.140625 -21.25 C 10.128906 -21.25 11.710938 -20.820312 12.890625 -19.96875 C 14.078125 -19.113281 14.671875 -17.738281 14.671875 -15.84375 C 14.671875 -13.707031 13.789062 -12.1875 12.03125 -11.28125 C 15.050781 -10.75 16.5625 -8.960938 16.5625 -5.921875 C 16.5625 -4.140625 15.941406 -2.707031 14.703125 -1.625 C 13.460938 -0.539062 11.765625 0 9.609375 0 L 1.546875 0 Z M 6.390625 -12.921875 L 6.765625 -12.921875 C 7.847656 -12.921875 8.65625 -13.109375 9.1875 -13.484375 C 9.71875 -13.867188 9.984375 -14.488281 9.984375 -15.34375 C 9.984375 -16.789062 8.910156 -17.515625 6.765625 -17.515625 L 6.390625 -17.515625 Z M 6.390625 -3.734375 L 7.90625 -3.734375 C 10.269531 -3.734375 11.453125 -4.523438 11.453125 -6.109375 C 11.453125 -7.046875 11.15625 -7.71875 10.5625 -8.125 C 9.976562 -8.539062 9.09375 -8.75 7.90625 -8.75 L 6.390625 -8.75 Z M 6.390625 -3.734375 "/></g></g></g><g fill="#0da0d8" fill-opacity="1"><g transform="translate(114.513475, 46.065324)"><g><path d="M 10.796875 -21.25 L 10.796875 -6 C 10.796875 -3.925781 10.222656 -2.34375 9.078125 -1.25 C 7.929688 -0.15625 6.296875 0.390625 4.171875 0.390625 C 3.609375 0.390625 3.050781 0.316406 2.5 0.171875 C 1.945312 0.0351562 1.484375 -0.128906 1.109375 -0.328125 C 0.734375 -0.523438 0.394531 -0.722656 0.09375 -0.921875 C -0.207031 -1.128906 -0.425781 -1.300781 -0.5625 -1.4375 L -0.796875 -1.640625 L 0.75 -5.6875 C 1.757812 -4.726562 2.675781 -4.25 3.5 -4.25 C 4.238281 -4.25 4.832031 -4.492188 5.28125 -4.984375 C 5.726562 -5.472656 5.953125 -6.222656 5.953125 -7.234375 L 5.953125 -21.25 Z M 10.796875 -21.25 "/></g></g></g><g fill="#0da0d8" fill-opacity="1"><g transform="translate(129.003531, 46.065324)"><g><path d="M 13.703125 -21.25 L 13.703125 -17 L 6.390625 -17 L 6.390625 -12.765625 L 13.390625 -12.765625 L 13.390625 -8.515625 L 6.390625 -8.515625 L 6.390625 -4.25 L 13.703125 -4.25 L 13.703125 0 L 1.546875 0 L 1.546875 -21.25 Z M 13.703125 -21.25 "/></g></g></g><g fill="#0da0d8" fill-opacity="1"><g transform="translate(146.350144, 46.065324)"><g><path d="M 0.203125 -17 L 0.203125 -21.25 L 15.140625 -21.25 L 15.140625 -17 L 10.09375 -17 L 10.09375 0 L 5.25 0 L 5.25 -17 Z M 0.203125 -17 "/></g></g></g><g fill="#0da0d8" fill-opacity="1"><g transform="translate(164.108503, 46.065324)"><g><path d="M 6.390625 -21.25 L 6.390625 0 L 1.546875 0 L 1.546875 -21.25 Z M 6.390625 -21.25 "/></g></g></g><g fill="#0da0d8" fill-opacity="1"><g transform="translate(174.455268, 46.065324)"><g><path d="M 8.1875 0 L -0.71875 -21.25 L 4.734375 -21.25 L 10.09375 -7.28125 L 15.453125 -21.25 L 20.90625 -21.25 L 12 0 Z M 8.1875 0 "/></g></g></g><g fill="#0da0d8" fill-opacity="1"><g transform="translate(218.951936, 46.065324)"><g><path d="M 9.375 -21.625 C 10.519531 -21.625 11.640625 -21.457031 12.734375 -21.125 C 13.835938 -20.789062 14.65625 -20.460938 15.1875 -20.140625 L 15.96875 -19.625 L 14.015625 -15.765625 C 13.859375 -15.859375 13.640625 -15.988281 13.359375 -16.15625 C 13.085938 -16.320312 12.570312 -16.539062 11.8125 -16.8125 C 11.0625 -17.09375 10.359375 -17.234375 9.703125 -17.234375 C 8.898438 -17.234375 8.28125 -17.0625 7.84375 -16.71875 C 7.40625 -16.375 7.1875 -15.910156 7.1875 -15.328125 C 7.1875 -15.035156 7.285156 -14.765625 7.484375 -14.515625 C 7.691406 -14.265625 8.046875 -13.992188 8.546875 -13.703125 C 9.046875 -13.421875 9.484375 -13.191406 9.859375 -13.015625 C 10.234375 -12.847656 10.816406 -12.59375 11.609375 -12.25 C 12.984375 -11.664062 14.15625 -10.875 15.125 -9.875 C 16.09375 -8.875 16.578125 -7.738281 16.578125 -6.46875 C 16.578125 -5.25 16.359375 -4.179688 15.921875 -3.265625 C 15.484375 -2.359375 14.882812 -1.644531 14.125 -1.125 C 13.363281 -0.613281 12.519531 -0.234375 11.59375 0.015625 C 10.664062 0.265625 9.660156 0.390625 8.578125 0.390625 C 7.648438 0.390625 6.738281 0.289062 5.84375 0.09375 C 4.945312 -0.09375 4.195312 -0.328125 3.59375 -0.609375 C 3 -0.890625 2.460938 -1.164062 1.984375 -1.4375 C 1.503906 -1.71875 1.148438 -1.953125 0.921875 -2.140625 L 0.59375 -2.421875 L 3.015625 -6.484375 C 3.222656 -6.316406 3.503906 -6.097656 3.859375 -5.828125 C 4.222656 -5.566406 4.863281 -5.210938 5.78125 -4.765625 C 6.695312 -4.316406 7.507812 -4.09375 8.21875 -4.09375 C 10.257812 -4.09375 11.28125 -4.789062 11.28125 -6.1875 C 11.28125 -6.476562 11.207031 -6.742188 11.0625 -6.984375 C 10.914062 -7.234375 10.65625 -7.484375 10.28125 -7.734375 C 9.914062 -7.984375 9.59375 -8.179688 9.3125 -8.328125 C 9.03125 -8.472656 8.566406 -8.695312 7.921875 -9 C 7.273438 -9.300781 6.796875 -9.53125 6.484375 -9.6875 C 5.203125 -10.320312 4.207031 -11.113281 3.5 -12.0625 C 2.800781 -13.019531 2.453125 -14.046875 2.453125 -15.140625 C 2.453125 -17.046875 3.15625 -18.601562 4.5625 -19.8125 C 5.96875 -21.019531 7.570312 -21.625 9.375 -21.625 Z M 9.375 -21.625 "/></g></g></g><g fill="#0da0d8" fill-opacity="1"><g transform="translate(68.740459, 65.510237)"><g><path d="M 0.78125 -10.8125 L 3.921875 -10.8125 C 5.421875 -10.8125 6.703125 -10.296875 7.765625 -9.265625 C 8.835938 -8.242188 9.375 -6.960938 9.375 -5.421875 C 9.375 -3.859375 8.84375 -2.5625 7.78125 -1.53125 C 6.71875 -0.507812 5.429688 0 3.921875 0 L 0.78125 0 Z M 3.25 -2.203125 L 3.625 -2.203125 C 4.53125 -2.203125 5.269531 -2.503906 5.84375 -3.109375 C 6.414062 -3.722656 6.707031 -4.488281 6.71875 -5.40625 C 6.71875 -6.320312 6.429688 -7.082031 5.859375 -7.6875 C 5.285156 -8.300781 4.539062 -8.609375 3.625 -8.609375 L 3.25 -8.609375 Z M 3.25 -2.203125 "/></g></g></g><g fill="#0da0d8" fill-opacity="1"><g transform="translate(79.643281, 65.510237)"><g><path d="M 6.96875 -10.8125 L 6.96875 -8.65625 L 3.25 -8.65625 L 3.25 -6.5 L 6.8125 -6.5 L 6.8125 -4.34375 L 3.25 -4.34375 L 3.25 -2.15625 L 6.96875 -2.15625 L 6.96875 0 L 0.78125 0 L 0.78125 -10.8125 Z M 6.96875 -10.8125 "/></g></g></g><g fill="#0da0d8" fill-opacity="1"><g transform="translate(88.475963, 65.510237)"><g/></g></g><g fill="#0da0d8" fill-opacity="1"><g transform="translate(93.286268, 65.510237)"><g><path d="M 0.78125 -10.8125 L 3.921875 -10.8125 C 5.421875 -10.8125 6.703125 -10.296875 7.765625 -9.265625 C 8.835938 -8.242188 9.375 -6.960938 9.375 -5.421875 C 9.375 -3.859375 8.84375 -2.5625 7.78125 -1.53125 C 6.71875 -0.507812 5.429688 0 3.921875 0 L 0.78125 0 Z M 3.25 -2.203125 L 3.625 -2.203125 C 4.53125 -2.203125 5.269531 -2.503906 5.84375 -3.109375 C 6.414062 -3.722656 6.707031 -4.488281 6.71875 -5.40625 C 6.71875 -6.320312 6.429688 -7.082031 5.859375 -7.6875 C 5.285156 -8.300781 4.539062 -8.609375 3.625 -8.609375 L 3.25 -8.609375 Z M 3.25 -2.203125 "/></g></g></g><g fill="#0da0d8" fill-opacity="1"><g transform="translate(104.18909, 65.510237)"><g><path d="M 6.96875 -10.8125 L 6.96875 -8.65625 L 3.25 -8.65625 L 3.25 -6.5 L 6.8125 -6.5 L 6.8125 -4.34375 L 3.25 -4.34375 L 3.25 -2.15625 L 6.96875 -2.15625 L 6.96875 0 L 0.78125 0 L 0.78125 -10.8125 Z M 6.96875 -10.8125 "/></g></g></g><g fill="#0da0d8" fill-opacity="1"><g transform="translate(113.021772, 65.510237)"><g><path d="M 4.765625 -11.015625 C 5.359375 -11.015625 5.929688 -10.925781 6.484375 -10.75 C 7.046875 -10.582031 7.460938 -10.414062 7.734375 -10.25 L 8.125 -9.984375 L 7.125 -8.015625 C 7.050781 -8.078125 6.941406 -8.144531 6.796875 -8.21875 C 6.660156 -8.300781 6.398438 -8.410156 6.015625 -8.546875 C 5.628906 -8.691406 5.269531 -8.765625 4.9375 -8.765625 C 4.53125 -8.765625 4.210938 -8.675781 3.984375 -8.5 C 3.765625 -8.332031 3.65625 -8.097656 3.65625 -7.796875 C 3.65625 -7.648438 3.707031 -7.515625 3.8125 -7.390625 C 3.914062 -7.265625 4.09375 -7.128906 4.34375 -6.984375 C 4.601562 -6.835938 4.828125 -6.71875 5.015625 -6.625 C 5.210938 -6.539062 5.507812 -6.410156 5.90625 -6.234375 C 6.613281 -5.941406 7.210938 -5.539062 7.703125 -5.03125 C 8.191406 -4.519531 8.4375 -3.941406 8.4375 -3.296875 C 8.4375 -2.671875 8.328125 -2.125 8.109375 -1.65625 C 7.890625 -1.195312 7.582031 -0.835938 7.1875 -0.578125 C 6.800781 -0.316406 6.367188 -0.125 5.890625 0 C 5.421875 0.132812 4.910156 0.203125 4.359375 0.203125 C 3.890625 0.203125 3.425781 0.148438 2.96875 0.046875 C 2.519531 -0.046875 2.140625 -0.164062 1.828125 -0.3125 C 1.523438 -0.457031 1.25 -0.597656 1 -0.734375 C 0.757812 -0.867188 0.582031 -0.988281 0.46875 -1.09375 L 0.296875 -1.234375 L 1.53125 -3.296875 C 1.632812 -3.210938 1.773438 -3.101562 1.953125 -2.96875 C 2.140625 -2.832031 2.46875 -2.648438 2.9375 -2.421875 C 3.40625 -2.191406 3.820312 -2.078125 4.1875 -2.078125 C 5.21875 -2.078125 5.734375 -2.429688 5.734375 -3.140625 C 5.734375 -3.296875 5.695312 -3.4375 5.625 -3.5625 C 5.550781 -3.6875 5.421875 -3.8125 5.234375 -3.9375 C 5.046875 -4.0625 4.878906 -4.160156 4.734375 -4.234375 C 4.585938 -4.316406 4.351562 -4.429688 4.03125 -4.578125 C 3.707031 -4.734375 3.460938 -4.847656 3.296875 -4.921875 C 2.648438 -5.253906 2.144531 -5.660156 1.78125 -6.140625 C 1.425781 -6.628906 1.25 -7.148438 1.25 -7.703125 C 1.25 -8.671875 1.601562 -9.460938 2.3125 -10.078125 C 3.03125 -10.703125 3.847656 -11.015625 4.765625 -11.015625 Z M 4.765625 -11.015625 "/></g></g></g><g fill="#0da0d8" fill-opacity="1"><g transform="translate(123.059858, 65.510237)"><g><path d="M 6.96875 -10.8125 L 6.96875 -8.65625 L 3.25 -8.65625 L 3.25 -6.5 L 6.8125 -6.5 L 6.8125 -4.34375 L 3.25 -4.34375 L 3.25 -2.15625 L 6.96875 -2.15625 L 6.96875 0 L 0.78125 0 L 0.78125 -10.8125 Z M 6.96875 -10.8125 "/></g></g></g><g fill="#0da0d8" fill-opacity="1"><g transform="translate(131.89254, 65.510237)"><g><path d="M 3.25 -6.71875 L 3.25 0 L 0.78125 0 L 0.78125 -10.8125 L 3.25 -10.8125 L 7.546875 -4.109375 L 7.578125 -4.109375 L 7.578125 -10.8125 L 10.046875 -10.8125 L 10.046875 0 L 7.578125 0 L 3.28125 -6.71875 Z M 3.25 -6.71875 "/></g></g></g><g fill="#0da0d8" fill-opacity="1"><g transform="translate(143.948364, 65.510237)"><g><path d="M 4.171875 0 L -0.359375 -10.8125 L 2.40625 -10.8125 L 5.140625 -3.703125 L 7.859375 -10.8125 L 10.640625 -10.8125 L 6.109375 0 Z M 4.171875 0 "/></g></g></g><g fill="#0da0d8" fill-opacity="1"><g transform="translate(155.453887, 65.510237)"><g><path d="M 0.296875 -5.421875 C 0.296875 -6.984375 0.828125 -8.304688 1.890625 -9.390625 C 2.960938 -10.472656 4.25 -11.015625 5.75 -11.015625 C 7.257812 -11.015625 8.546875 -10.472656 9.609375 -9.390625 C 10.671875 -8.316406 11.203125 -6.992188 11.203125 -5.421875 C 11.203125 -3.835938 10.679688 -2.503906 9.640625 -1.421875 C 8.597656 -0.335938 7.300781 0.203125 5.75 0.203125 C 4.164062 0.203125 2.859375 -0.332031 1.828125 -1.40625 C 0.804688 -2.476562 0.296875 -3.816406 0.296875 -5.421875 Z M 2.96875 -5.421875 C 2.96875 -4.847656 3.050781 -4.328125 3.21875 -3.859375 C 3.394531 -3.390625 3.703125 -2.992188 4.140625 -2.671875 C 4.578125 -2.347656 5.113281 -2.1875 5.75 -2.1875 C 6.664062 -2.1875 7.359375 -2.5 7.828125 -3.125 C 8.296875 -3.757812 8.53125 -4.523438 8.53125 -5.421875 C 8.53125 -6.296875 8.289062 -7.050781 7.8125 -7.6875 C 7.34375 -8.320312 6.65625 -8.640625 5.75 -8.640625 C 4.863281 -8.640625 4.175781 -8.320312 3.6875 -7.6875 C 3.207031 -7.050781 2.96875 -6.296875 2.96875 -5.421875 Z M 2.96875 -5.421875 "/></g></g></g><g fill="#0da0d8" fill-opacity="1"><g transform="translate(168.177923, 65.510237)"><g><path d="M 3.25 -10.8125 L 3.25 -2.15625 L 6.96875 -2.15625 L 6.96875 0 L 0.78125 0 L 0.78125 -10.8125 Z M 3.25 -10.8125 "/></g></g></g><g fill="#0da0d8" fill-opacity="1"><g transform="translate(176.814071, 65.510237)"><g><path d="M 4.171875 0 L -0.359375 -10.8125 L 2.40625 -10.8125 L 5.140625 -3.703125 L 7.859375 -10.8125 L 10.640625 -10.8125 L 6.109375 0 Z M 4.171875 0 "/></g></g></g><g fill="#0da0d8" fill-opacity="1"><g transform="translate(188.319594, 65.510237)"><g><path d="M 3.25 -10.8125 L 3.25 0 L 0.78125 0 L 0.78125 -10.8125 Z M 3.25 -10.8125 "/></g></g></g><g fill="#0da0d8" fill-opacity="1"><g transform="translate(193.588468, 65.510237)"><g><path d="M 9.734375 0 L 9.21875 -6.40625 L 9.15625 -6.40625 L 6.9375 -0.0625 L 5.46875 -0.0625 L 3.25 -6.40625 L 3.1875 -6.40625 L 2.671875 0 L 0.203125 0 L 1.1875 -10.8125 L 3.796875 -10.8125 L 6.203125 -4.578125 L 8.59375 -10.8125 L 11.21875 -10.8125 L 12.1875 0 Z M 9.734375 0 "/></g></g></g><g fill="#0da0d8" fill-opacity="1"><g transform="translate(207.216557, 65.510237)"><g><path d="M 6.96875 -10.8125 L 6.96875 -8.65625 L 3.25 -8.65625 L 3.25 -6.5 L 6.8125 -6.5 L 6.8125 -4.34375 L 3.25 -4.34375 L 3.25 -2.15625 L 6.96875 -2.15625 L 6.96875 0 L 0.78125 0 L 0.78125 -10.8125 Z M 6.96875 -10.8125 "/></g></g></g><g fill="#0da0d8" fill-opacity="1"><g transform="translate(216.04924, 65.510237)"><g><path d="M 3.25 -6.71875 L 3.25 0 L 0.78125 0 L 0.78125 -10.8125 L 3.25 -10.8125 L 7.546875 -4.109375 L 7.578125 -4.109375 L 7.578125 -10.8125 L 10.046875 -10.8125 L 10.046875 0 L 7.578125 0 L 3.28125 -6.71875 Z M 3.25 -6.71875 "/></g></g></g><g fill="#0da0d8" fill-opacity="1"><g transform="translate(228.105063, 65.510237)"><g><path d="M 0.109375 -8.65625 L 0.109375 -10.8125 L 7.703125 -10.8125 L 7.703125 -8.65625 L 5.140625 -8.65625 L 5.140625 0 L 2.671875 0 L 2.671875 -8.65625 Z M 0.109375 -8.65625 "/></g></g></g><g fill="#0da0d8" fill-opacity="1"><g transform="translate(237.147377, 65.510237)"><g><path d="M 0.296875 -5.421875 C 0.296875 -6.984375 0.828125 -8.304688 1.890625 -9.390625 C 2.960938 -10.472656 4.25 -11.015625 5.75 -11.015625 C 7.257812 -11.015625 8.546875 -10.472656 9.609375 -9.390625 C 10.671875 -8.316406 11.203125 -6.992188 11.203125 -5.421875 C 11.203125 -3.835938 10.679688 -2.503906 9.640625 -1.421875 C 8.597656 -0.335938 7.300781 0.203125 5.75 0.203125 C 4.164062 0.203125 2.859375 -0.332031 1.828125 -1.40625 C 0.804688 -2.476562 0.296875 -3.816406 0.296875 -5.421875 Z M 2.96875 -5.421875 C 2.96875 -4.847656 3.050781 -4.328125 3.21875 -3.859375 C 3.394531 -3.390625 3.703125 -2.992188 4.140625 -2.671875 C 4.578125 -2.347656 5.113281 -2.1875 5.75 -2.1875 C 6.664062 -2.1875 7.359375 -2.5 7.828125 -3.125 C 8.296875 -3.757812 8.53125 -4.523438 8.53125 -5.421875 C 8.53125 -6.296875 8.289062 -7.050781 7.8125 -7.6875 C 7.34375 -8.320312 6.65625 -8.640625 5.75 -8.640625 C 4.863281 -8.640625 4.175781 -8.320312 3.6875 -7.6875 C 3.207031 -7.050781 2.96875 -6.296875 2.96875 -5.421875 Z M 2.96875 -5.421875 "/></g></g></g><g fill="#0da0d8" fill-opacity="1"><g transform="translate(249.871414, 65.510237)"><g/></g></g><g fill="#0da0d8" fill-opacity="1"><g transform="translate(254.681719, 65.510237)"><g><path d="M 4.765625 -11.015625 C 5.359375 -11.015625 5.929688 -10.925781 6.484375 -10.75 C 7.046875 -10.582031 7.460938 -10.414062 7.734375 -10.25 L 8.125 -9.984375 L 7.125 -8.015625 C 7.050781 -8.078125 6.941406 -8.144531 6.796875 -8.21875 C 6.660156 -8.300781 6.398438 -8.410156 6.015625 -8.546875 C 5.628906 -8.691406 5.269531 -8.765625 4.9375 -8.765625 C 4.53125 -8.765625 4.210938 -8.675781 3.984375 -8.5 C 3.765625 -8.332031 3.65625 -8.097656 3.65625 -7.796875 C 3.65625 -7.648438 3.707031 -7.515625 3.8125 -7.390625 C 3.914062 -7.265625 4.09375 -7.128906 4.34375 -6.984375 C 4.601562 -6.835938 4.828125 -6.71875 5.015625 -6.625 C 5.210938 -6.539062 5.507812 -6.410156 5.90625 -6.234375 C 6.613281 -5.941406 7.210938 -5.539062 7.703125 -5.03125 C 8.191406 -4.519531 8.4375 -3.941406 8.4375 -3.296875 C 8.4375 -2.671875 8.328125 -2.125 8.109375 -1.65625 C 7.890625 -1.195312 7.582031 -0.835938 7.1875 -0.578125 C 6.800781 -0.316406 6.367188 -0.125 5.890625 0 C 5.421875 0.132812 4.910156 0.203125 4.359375 0.203125 C 3.890625 0.203125 3.425781 0.148438 2.96875 0.046875 C 2.519531 -0.046875 2.140625 -0.164062 1.828125 -0.3125 C 1.523438 -0.457031 1.25 -0.597656 1 -0.734375 C 0.757812 -0.867188 0.582031 -0.988281 0.46875 -1.09375 L 0.296875 -1.234375 L 1.53125 -3.296875 C 1.632812 -3.210938 1.773438 -3.101562 1.953125 -2.96875 C 2.140625 -2.832031 2.46875 -2.648438 2.9375 -2.421875 C 3.40625 -2.191406 3.820312 -2.078125 4.1875 -2.078125 C 5.21875 -2.078125 5.734375 -2.429688 5.734375 -3.140625 C 5.734375 -3.296875 5.695312 -3.4375 5.625 -3.5625 C 5.550781 -3.6875 5.421875 -3.8125 5.234375 -3.9375 C 5.046875 -4.0625 4.878906 -4.160156 4.734375 -4.234375 C 4.585938 -4.316406 4.351562 -4.429688 4.03125 -4.578125 C 3.707031 -4.734375 3.460938 -4.847656 3.296875 -4.921875 C 2.648438 -5.253906 2.144531 -5.660156 1.78125 -6.140625 C 1.425781 -6.628906 1.25 -7.148438 1.25 -7.703125 C 1.25 -8.671875 1.601562 -9.460938 2.3125 -10.078125 C 3.03125 -10.703125 3.847656 -11.015625 4.765625 -11.015625 Z M 4.765625 -11.015625 "/></g></g></g><g fill="#0da0d8" fill-opacity="1"><g transform="translate(264.719805, 65.510237)"><g><path d="M 9.09375 -10.8125 L 9.09375 -3.84375 C 9.09375 -2.507812 8.734375 -1.5 8.015625 -0.8125 C 7.304688 -0.132812 6.257812 0.203125 4.875 0.203125 C 3.5 0.203125 2.453125 -0.132812 1.734375 -0.8125 C 1.015625 -1.5 0.65625 -2.507812 0.65625 -3.84375 L 0.65625 -10.8125 L 3.125 -10.8125 L 3.125 -4.5625 C 3.125 -3.6875 3.257812 -3.078125 3.53125 -2.734375 C 3.8125 -2.398438 4.257812 -2.234375 4.875 -2.234375 C 5.5 -2.234375 5.945312 -2.398438 6.21875 -2.734375 C 6.5 -3.078125 6.640625 -3.6875 6.640625 -4.5625 L 6.640625 -10.8125 Z M 9.09375 -10.8125 "/></g></g></g><g fill="#0da0d8" fill-opacity="1"><g transform="translate(275.701248, 65.510237)"><g><path d="M 4.765625 -11.015625 C 5.359375 -11.015625 5.929688 -10.925781 6.484375 -10.75 C 7.046875 -10.582031 7.460938 -10.414062 7.734375 -10.25 L 8.125 -9.984375 L 7.125 -8.015625 C 7.050781 -8.078125 6.941406 -8.144531 6.796875 -8.21875 C 6.660156 -8.300781 6.398438 -8.410156 6.015625 -8.546875 C 5.628906 -8.691406 5.269531 -8.765625 4.9375 -8.765625 C 4.53125 -8.765625 4.210938 -8.675781 3.984375 -8.5 C 3.765625 -8.332031 3.65625 -8.097656 3.65625 -7.796875 C 3.65625 -7.648438 3.707031 -7.515625 3.8125 -7.390625 C 3.914062 -7.265625 4.09375 -7.128906 4.34375 -6.984375 C 4.601562 -6.835938 4.828125 -6.71875 5.015625 -6.625 C 5.210938 -6.539062 5.507812 -6.410156 5.90625 -6.234375 C 6.613281 -5.941406 7.210938 -5.539062 7.703125 -5.03125 C 8.191406 -4.519531 8.4375 -3.941406 8.4375 -3.296875 C 8.4375 -2.671875 8.328125 -2.125 8.109375 -1.65625 C 7.890625 -1.195312 7.582031 -0.835938 7.1875 -0.578125 C 6.800781 -0.316406 6.367188 -0.125 5.890625 0 C 5.421875 0.132812 4.910156 0.203125 4.359375 0.203125 C 3.890625 0.203125 3.425781 0.148438 2.96875 0.046875 C 2.519531 -0.046875 2.140625 -0.164062 1.828125 -0.3125 C 1.523438 -0.457031 1.25 -0.597656 1 -0.734375 C 0.757812 -0.867188 0.582031 -0.988281 0.46875 -1.09375 L 0.296875 -1.234375 L 1.53125 -3.296875 C 1.632812 -3.210938 1.773438 -3.101562 1.953125 -2.96875 C 2.140625 -2.832031 2.46875 -2.648438 2.9375 -2.421875 C 3.40625 -2.191406 3.820312 -2.078125 4.1875 -2.078125 C 5.21875 -2.078125 5.734375 -2.429688 5.734375 -3.140625 C 5.734375 -3.296875 5.695312 -3.4375 5.625 -3.5625 C 5.550781 -3.6875 5.421875 -3.8125 5.234375 -3.9375 C 5.046875 -4.0625 4.878906 -4.160156 4.734375 -4.234375 C 4.585938 -4.316406 4.351562 -4.429688 4.03125 -4.578125 C 3.707031 -4.734375 3.460938 -4.847656 3.296875 -4.921875 C 2.648438 -5.253906 2.144531 -5.660156 1.78125 -6.140625 C 1.425781 -6.628906 1.25 -7.148438 1.25 -7.703125 C 1.25 -8.671875 1.601562 -9.460938 2.3125 -10.078125 C 3.03125 -10.703125 3.847656 -11.015625 4.765625 -11.015625 Z M 4.765625 -11.015625 "/></g></g></g><g fill="#0da0d8" fill-opacity="1"><g transform="translate(285.739334, 65.510237)"><g><path d="M 0.109375 -8.65625 L 0.109375 -10.8125 L 7.703125 -10.8125 L 7.703125 -8.65625 L 5.140625 -8.65625 L 5.140625 0 L 2.671875 0 L 2.671875 -8.65625 Z M 0.109375 -8.65625 "/></g></g></g><g fill="#0da0d8" fill-opacity="1"><g transform="translate(294.781648, 65.510237)"><g><path d="M 6.96875 -10.8125 L 6.96875 -8.65625 L 3.25 -8.65625 L 3.25 -6.5 L 6.8125 -6.5 L 6.8125 -4.34375 L 3.25 -4.34375 L 3.25 -2.15625 L 6.96875 -2.15625 L 6.96875 0 L 0.78125 0 L 0.78125 -10.8125 Z M 6.96875 -10.8125 "/></g></g></g><g fill="#0da0d8" fill-opacity="1"><g transform="translate(303.614331, 65.510237)"><g><path d="M 3.25 -6.71875 L 3.25 0 L 0.78125 0 L 0.78125 -10.8125 L 3.25 -10.8125 L 7.546875 -4.109375 L 7.578125 -4.109375 L 7.578125 -10.8125 L 10.046875 -10.8125 L 10.046875 0 L 7.578125 0 L 3.28125 -6.71875 Z M 3.25 -6.71875 "/></g></g></g><g fill="#0da0d8" fill-opacity="1"><g transform="translate(315.670154, 65.510237)"><g><path d="M 0.109375 -8.65625 L 0.109375 -10.8125 L 7.703125 -10.8125 L 7.703125 -8.65625 L 5.140625 -8.65625 L 5.140625 0 L 2.671875 0 L 2.671875 -8.65625 Z M 0.109375 -8.65625 "/></g></g></g><g fill="#0da0d8" fill-opacity="1"><g transform="translate(324.712469, 65.510237)"><g><path d="M 4.359375 -12.796875 L 7.03125 -15.109375 L 8.21875 -13.59375 L 5.09375 -11.78125 Z M 6.28125 -10.8125 L 10.640625 0 L 8 0 L 7.203125 -2.15625 L 3.078125 -2.15625 L 2.28125 0 L -0.359375 0 L 4 -10.8125 Z M 6.359375 -4.328125 L 5.15625 -7.46875 L 5.125 -7.46875 L 3.921875 -4.328125 Z M 6.359375 -4.328125 "/></g></g></g><g fill="#0da0d8" fill-opacity="1"><g transform="translate(336.217979, 65.510237)"><g><path d="M 4.171875 0 L -0.359375 -10.8125 L 2.40625 -10.8125 L 5.140625 -3.703125 L 7.859375 -10.8125 L 10.640625 -10.8125 L 6.109375 0 Z M 4.171875 0 "/></g></g></g><g fill="#0da0d8" fill-opacity="1"><g transform="translate(347.72349, 65.510237)"><g><path d="M 6.96875 -10.8125 L 6.96875 -8.65625 L 3.25 -8.65625 L 3.25 -6.5 L 6.8125 -6.5 L 6.8125 -4.34375 L 3.25 -4.34375 L 3.25 -2.15625 L 6.96875 -2.15625 L 6.96875 0 L 0.78125 0 L 0.78125 -10.8125 Z M 6.96875 -10.8125 "/></g></g></g><g fill="#0da0d8" fill-opacity="1"><g transform="translate(356.556172, 65.510237)"><g><path d="M 3.25 -10.8125 L 3.25 -2.15625 L 6.96875 -2.15625 L 6.96875 0 L 0.78125 0 L 0.78125 -10.8125 Z M 3.25 -10.8125 "/></g></g></g></svg>