<svg xmlns="http://www.w3.org/2000/svg" xmlns:xlink="http://www.w3.org/1999/xlink" width="500" zoomAndPan="magnify" viewBox="0 0 375 94.499997" height="126" preserveAspectRatio="xMidYMid meet" version="1.0"><defs><g/><clipPath id="abd58bf768"><path d="M 0.988281 0 L 374.011719 0 L 374.011719 94.003906 L 0.988281 94.003906 Z M 0.988281 0 " clip-rule="nonzero"/></clipPath><clipPath id="18667b7bdd"><path d="M 163 19.242188 L 168 19.242188 L 168 26 L 163 26 Z M 163 19.242188 " clip-rule="nonzero"/></clipPath><clipPath id="7503ecb277"><path d="M 168 19.242188 L 173 19.242188 L 173 26 L 168 26 Z M 168 19.242188 " clip-rule="nonzero"/></clipPath><clipPath id="7e97bb95a6"><path d="M 175 27 L 182.515625 27 L 182.515625 33 L 175 33 Z M 175 27 " clip-rule="nonzero"/></clipPath><clipPath id="d91aa50296"><path d="M 153.816406 32 L 161 32 L 161 37 L 153.816406 37 Z M 153.816406 32 " clip-rule="nonzero"/></clipPath><clipPath id="a7330d2b17"><path d="M 175 32 L 182.515625 32 L 182.515625 37 L 175 37 Z M 175 32 " clip-rule="nonzero"/></clipPath><clipPath id="149da0ec2e"><path d="M 161 40 L 167 40 L 167 47.9375 L 161 47.9375 Z M 161 40 " clip-rule="nonzero"/></clipPath><clipPath id="d75e1f1b2a"><path d="M 170 40 L 176 40 L 176 47.9375 L 170 47.9375 Z M 170 40 " clip-rule="nonzero"/></clipPath><clipPath id="fa4228c1ce"><path d="M 165 41 L 171 41 L 171 47.9375 L 165 47.9375 Z M 165 41 " clip-rule="nonzero"/></clipPath></defs><g clip-path="url(#abd58bf768)"><path fill="#ffffff" d="M 0.988281 0 L 374.011719 0 L 374.011719 94.003906 L 0.988281 94.003906 Z M 0.988281 0 " fill-opacity="1" fill-rule="nonzero"/><path fill="#ffffff" d="M 0.988281 0 L 374.011719 0 L 374.011719 94.003906 L 0.988281 94.003906 Z M 0.988281 0 " fill-opacity="1" fill-rule="nonzero"/></g><g clip-path="url(#18667b7bdd)"><path fill="#183668" d="M 165.675781 25.863281 C 165.636719 25.835938 165.628906 25.808594 165.609375 25.765625 C 164.898438 23.921875 164.183594 22.078125 163.46875 20.234375 C 163.425781 20.121094 163.441406 20.054688 163.554688 20.015625 C 164.828125 19.582031 166.140625 19.332031 167.484375 19.265625 C 167.617188 19.261719 167.75 19.242188 167.75 19.402344 C 167.75 21.402344 167.75 23.398438 167.75 25.394531 C 167.75 25.484375 167.703125 25.53125 167.617188 25.535156 C 166.988281 25.582031 166.375 25.695312 165.78125 25.878906 C 165.746094 25.890625 165.710938 25.886719 165.675781 25.863281 Z M 165.675781 25.863281 " fill-opacity="1" fill-rule="nonzero"/></g><g clip-path="url(#7503ecb277)"><path fill="#eb1c2d" d="M 168.636719 25.515625 C 168.585938 25.480469 168.574219 25.449219 168.574219 25.382812 C 168.574219 23.382812 168.574219 21.386719 168.574219 19.386719 C 168.574219 19.257812 168.703125 19.261719 168.796875 19.265625 C 170.15625 19.328125 171.476562 19.574219 172.761719 20.011719 C 172.875 20.050781 172.90625 20.109375 172.863281 20.21875 C 172.148438 22.066406 171.433594 23.917969 170.714844 25.765625 C 170.675781 25.871094 170.625 25.902344 170.515625 25.871094 C 169.914062 25.6875 169.308594 25.574219 168.691406 25.535156 C 168.671875 25.535156 168.652344 25.527344 168.636719 25.515625 Z M 168.636719 25.515625 " fill-opacity="1" fill-rule="nonzero"/></g><path fill="#02558b" d="M 163.042969 27.261719 C 163.03125 27.253906 163.023438 27.25 163.015625 27.242188 C 161.667969 25.761719 160.324219 24.28125 158.976562 22.804688 C 158.898438 22.71875 158.933594 22.648438 159.015625 22.582031 C 160.074219 21.695312 161.234375 20.972656 162.503906 20.421875 C 162.589844 20.382812 162.660156 20.417969 162.691406 20.503906 C 163.410156 22.359375 164.128906 24.214844 164.847656 26.070312 C 164.878906 26.15625 164.867188 26.226562 164.78125 26.265625 C 164.21875 26.535156 163.695312 26.859375 163.207031 27.25 C 163.15625 27.289062 163.101562 27.292969 163.042969 27.261719 Z M 163.042969 27.261719 " fill-opacity="1" fill-rule="nonzero"/><path fill="#d3a029" d="M 171.515625 26.25 C 171.445312 26.210938 171.457031 26.132812 171.484375 26.066406 C 172.199219 24.214844 172.914062 22.363281 173.632812 20.515625 C 173.667969 20.417969 173.730469 20.382812 173.828125 20.425781 C 175.074219 20.96875 176.21875 21.671875 177.261719 22.539062 C 177.371094 22.632812 177.453125 22.691406 177.335938 22.820312 C 176.03125 24.253906 174.726562 25.6875 173.421875 27.117188 C 173.351562 27.195312 173.253906 27.347656 173.128906 27.25 C 172.761719 26.957031 172.367188 26.703125 171.953125 26.480469 C 171.808594 26.402344 171.660156 26.324219 171.515625 26.25 Z M 171.515625 26.25 " fill-opacity="1" fill-rule="nonzero"/><path fill="#5dbb46" d="M 158.175781 23.34375 C 158.304688 23.214844 158.472656 23.472656 158.546875 23.554688 C 159.832031 24.964844 161.121094 26.378906 162.410156 27.796875 C 162.476562 27.871094 162.433594 27.9375 162.375 28.003906 C 161.972656 28.429688 161.601562 28.921875 161.265625 29.476562 C 161.210938 29.566406 161.128906 29.535156 161.046875 29.496094 C 159.285156 28.617188 157.523438 27.742188 155.765625 26.863281 C 155.65625 26.808594 155.613281 26.75 155.679688 26.636719 C 156.359375 25.410156 157.191406 24.3125 158.175781 23.34375 Z M 158.175781 23.34375 " fill-opacity="1" fill-rule="nonzero"/><path fill="#279b48" d="M 178.378906 23.574219 C 179.273438 24.492188 180.027344 25.511719 180.648438 26.636719 C 180.695312 26.722656 180.691406 26.800781 180.597656 26.84375 C 178.820312 27.730469 177.042969 28.617188 175.261719 29.507812 C 175.171875 29.550781 175.105469 29.550781 175.050781 29.460938 C 174.746094 28.945312 174.367188 28.449219 173.917969 27.96875 C 173.859375 27.902344 173.890625 27.828125 173.945312 27.765625 C 175.277344 26.304688 176.609375 24.839844 177.941406 23.375 C 177.996094 23.316406 178.0625 23.277344 178.132812 23.328125 C 178.207031 23.378906 178.3125 23.507812 178.378906 23.574219 Z M 178.378906 23.574219 " fill-opacity="1" fill-rule="nonzero"/><path fill="#007dbc" d="M 160.117188 32.34375 C 158.144531 32.167969 156.167969 31.980469 154.195312 31.792969 C 154.066406 31.78125 154.023438 31.738281 154.039062 31.613281 C 154.222656 30.242188 154.597656 28.925781 155.164062 27.664062 C 155.199219 27.585938 155.265625 27.535156 155.351562 27.578125 C 157.136719 28.46875 158.917969 29.355469 160.703125 30.246094 C 160.785156 30.289062 160.824219 30.347656 160.789062 30.433594 C 160.550781 31.007812 160.378906 31.601562 160.277344 32.214844 C 160.261719 32.308594 160.214844 32.351562 160.117188 32.34375 Z M 160.117188 32.34375 " fill-opacity="1" fill-rule="nonzero"/><g clip-path="url(#7e97bb95a6)"><path fill="#c31f33" d="M 176.117188 32.328125 C 176.085938 32.308594 176.058594 32.28125 176.054688 32.238281 C 175.953125 31.621094 175.78125 31.023438 175.542969 30.445312 C 175.515625 30.371094 175.523438 30.296875 175.59375 30.261719 C 177.386719 29.367188 179.179688 28.472656 180.972656 27.578125 C 181.066406 27.53125 181.125 27.585938 181.164062 27.671875 C 181.730469 28.933594 182.105469 30.25 182.289062 31.617188 C 182.304688 31.730469 182.257812 31.785156 182.144531 31.792969 C 180.15625 31.980469 178.171875 32.164062 176.1875 32.347656 C 176.160156 32.347656 176.136719 32.34375 176.117188 32.328125 Z M 176.117188 32.328125 " fill-opacity="1" fill-rule="nonzero"/></g><g clip-path="url(#d91aa50296)"><path fill="#48773e" d="M 159.988281 33.160156 C 160.105469 33.171875 160.175781 33.1875 160.171875 33.320312 C 160.160156 33.933594 160.214844 34.546875 160.339844 35.167969 C 160.359375 35.253906 160.324219 35.308594 160.242188 35.332031 C 158.335938 35.875 156.429688 36.417969 154.527344 36.960938 C 154.347656 37.011719 154.324219 36.945312 154.289062 36.792969 C 153.984375 35.472656 153.863281 34.136719 153.933594 32.785156 C 153.9375 32.6875 153.96875 32.601562 154.074219 32.609375 C 156.046875 32.792969 158.019531 32.976562 159.988281 33.160156 Z M 159.988281 33.160156 " fill-opacity="1" fill-rule="nonzero"/></g><g clip-path="url(#a7330d2b17)"><path fill="#ef402b" d="M 176.046875 35.316406 C 175.980469 35.277344 175.972656 35.226562 175.988281 35.148438 C 176.109375 34.554688 176.164062 33.957031 176.152344 33.355469 C 176.152344 33.253906 176.167969 33.175781 176.277344 33.164062 C 178.261719 32.980469 180.25 32.796875 182.234375 32.613281 C 182.351562 32.601562 182.386719 32.664062 182.394531 32.773438 C 182.460938 34.128906 182.339844 35.488281 182.023438 36.855469 C 181.992188 36.988281 181.921875 36.996094 181.800781 36.960938 C 179.894531 36.417969 177.988281 35.875 176.078125 35.332031 C 176.066406 35.328125 176.058594 35.324219 176.046875 35.316406 Z M 176.046875 35.316406 " fill-opacity="1" fill-rule="nonzero"/></g><path fill="#cf8d2a" d="M 160.585938 36.144531 C 160.605469 36.15625 160.621094 36.175781 160.632812 36.199219 C 160.804688 36.6875 161.027344 37.15625 161.296875 37.609375 C 161.355469 37.703125 161.410156 37.796875 161.464844 37.890625 C 161.507812 37.960938 161.503906 38.023438 161.4375 38.074219 C 159.855469 39.269531 158.277344 40.464844 156.699219 41.660156 C 156.613281 41.722656 156.53125 41.765625 156.460938 41.664062 C 155.667969 40.527344 155.054688 39.292969 154.613281 37.949219 C 154.570312 37.8125 154.660156 37.777344 154.777344 37.742188 C 156.671875 37.207031 158.566406 36.667969 160.460938 36.128906 C 160.511719 36.113281 160.542969 36.117188 160.585938 36.144531 Z M 160.585938 36.144531 " fill-opacity="1" fill-rule="nonzero"/><path fill="#00aed9" d="M 174.886719 38.070312 C 174.824219 38.019531 174.820312 37.953125 174.863281 37.882812 C 175.199219 37.363281 175.472656 36.816406 175.683594 36.234375 C 175.71875 36.136719 175.773438 36.101562 175.875 36.128906 C 177.789062 36.675781 179.703125 37.21875 181.617188 37.765625 C 181.730469 37.796875 181.738281 37.878906 181.703125 37.980469 C 181.273438 39.285156 180.667969 40.5 179.886719 41.632812 C 179.820312 41.730469 179.757812 41.753906 179.660156 41.679688 C 178.066406 40.476562 176.476562 39.273438 174.886719 38.070312 Z M 174.886719 38.070312 " fill-opacity="1" fill-rule="nonzero"/><path fill="#f99d26" d="M 160.1875 45.34375 C 159.050781 44.578125 158.039062 43.648438 157.140625 42.5625 C 157.039062 42.4375 157.105469 42.382812 157.210938 42.300781 C 158.78125 41.113281 160.355469 39.925781 161.925781 38.738281 C 162.023438 38.664062 162.082031 38.714844 162.15625 38.792969 C 162.5625 39.257812 163.007812 39.664062 163.492188 40.011719 C 163.589844 40.082031 163.566406 40.15625 163.511719 40.246094 C 162.472656 41.925781 161.433594 43.605469 160.394531 45.285156 C 160.34375 45.371094 160.277344 45.40625 160.1875 45.34375 Z M 160.1875 45.34375 " fill-opacity="1" fill-rule="nonzero"/><path fill="#fdb713" d="M 175.992188 45.355469 C 175.976562 45.34375 175.960938 45.332031 175.949219 45.3125 C 174.929688 43.660156 173.90625 42.007812 172.878906 40.347656 C 172.828125 40.269531 172.699219 40.109375 172.8125 40.027344 C 173.308594 39.671875 173.777344 39.242188 174.21875 38.742188 C 174.269531 38.683594 174.347656 38.695312 174.40625 38.742188 C 175.972656 39.925781 177.535156 41.105469 179.097656 42.289062 C 179.199219 42.367188 179.296875 42.429688 179.195312 42.550781 C 178.3125 43.628906 177.292969 44.5625 176.140625 45.347656 C 176.09375 45.382812 176.042969 45.382812 175.992188 45.355469 Z M 175.992188 45.355469 " fill-opacity="1" fill-rule="nonzero"/><g clip-path="url(#149da0ec2e)"><path fill="#e11484" d="M 161.167969 45.953125 C 161.082031 45.902344 161.015625 45.84375 161.078125 45.746094 C 162.132812 44.039062 163.1875 42.332031 164.242188 40.625 C 164.292969 40.546875 164.375 40.566406 164.453125 40.605469 C 164.984375 40.886719 165.558594 41.105469 166.175781 41.269531 C 166.269531 41.296875 166.273438 41.378906 166.257812 41.464844 C 165.894531 43.421875 165.527344 45.382812 165.164062 47.339844 C 165.144531 47.4375 165.058594 47.445312 164.96875 47.425781 C 163.632812 47.121094 162.363281 46.628906 161.167969 45.953125 Z M 161.167969 45.953125 " fill-opacity="1" fill-rule="nonzero"/></g><g clip-path="url(#d75e1f1b2a)"><path fill="#8f1838" d="M 171.375 47.425781 C 171.277344 47.445312 171.179688 47.445312 171.160156 47.324219 C 170.796875 45.367188 170.429688 43.40625 170.066406 41.449219 C 170.050781 41.375 170.070312 41.292969 170.144531 41.273438 C 170.777344 41.101562 171.355469 40.878906 171.878906 40.605469 C 171.957031 40.566406 172.035156 40.546875 172.085938 40.632812 C 173.128906 42.316406 174.171875 44 175.214844 45.6875 C 175.261719 45.765625 175.3125 45.863281 175.207031 45.925781 C 174.015625 46.609375 172.734375 47.109375 171.375 47.425781 Z M 171.375 47.425781 " fill-opacity="1" fill-rule="nonzero"/></g><g clip-path="url(#fa4228c1ce)"><path fill="#f36d25" d="M 166.035156 47.621094 C 165.964844 47.570312 165.964844 47.527344 165.980469 47.445312 C 166.34375 45.488281 166.710938 43.535156 167.074219 41.578125 C 167.097656 41.464844 167.179688 41.460938 167.28125 41.472656 C 167.863281 41.535156 168.472656 41.535156 169.109375 41.464844 C 169.214844 41.453125 169.242188 41.535156 169.261719 41.625 C 169.625 43.566406 169.988281 45.511719 170.347656 47.453125 C 170.367188 47.558594 170.335938 47.625 170.230469 47.636719 C 168.839844 47.835938 167.453125 47.835938 166.074219 47.636719 C 166.058594 47.632812 166.046875 47.628906 166.035156 47.621094 Z M 166.035156 47.621094 " fill-opacity="1" fill-rule="nonzero"/></g><g fill="#0da0d8" fill-opacity="1"><g transform="translate(2.457457, 46.019723)"><g><path d="M 0.71875 -12.78125 C 0.71875 -16.476562 1.972656 -19.601562 4.484375 -22.15625 C 7.003906 -24.71875 10.039062 -26 13.59375 -26 C 17.15625 -26 20.1875 -24.722656 22.6875 -22.171875 C 25.1875 -19.628906 26.4375 -16.5 26.4375 -12.78125 C 26.4375 -9.050781 25.207031 -5.910156 22.75 -3.359375 C 20.289062 -0.804688 17.238281 0.46875 13.59375 0.46875 C 9.851562 0.46875 6.769531 -0.796875 4.34375 -3.328125 C 1.925781 -5.859375 0.71875 -9.007812 0.71875 -12.78125 Z M 7 -12.78125 C 7 -11.4375 7.203125 -10.210938 7.609375 -9.109375 C 8.023438 -8.003906 8.75 -7.070312 9.78125 -6.3125 C 10.8125 -5.550781 12.082031 -5.171875 13.59375 -5.171875 C 15.757812 -5.171875 17.394531 -5.910156 18.5 -7.390625 C 19.601562 -8.878906 20.15625 -10.675781 20.15625 -12.78125 C 20.15625 -14.863281 19.59375 -16.648438 18.46875 -18.140625 C 17.34375 -19.640625 15.71875 -20.390625 13.59375 -20.390625 C 11.488281 -20.390625 9.863281 -19.640625 8.71875 -18.140625 C 7.570312 -16.648438 7 -14.863281 7 -12.78125 Z M 7 -12.78125 "/></g></g></g><g fill="#0da0d8" fill-opacity="1"><g transform="translate(32.496888, 46.019723)"><g><path d="M 1.859375 -25.53125 L 9.78125 -25.53125 C 12.175781 -25.53125 14.082031 -25.019531 15.5 -24 C 16.925781 -22.976562 17.640625 -21.320312 17.640625 -19.03125 C 17.640625 -16.476562 16.578125 -14.65625 14.453125 -13.5625 C 18.085938 -12.914062 19.90625 -10.769531 19.90625 -7.125 C 19.90625 -4.976562 19.160156 -3.253906 17.671875 -1.953125 C 16.191406 -0.648438 14.148438 0 11.546875 0 L 1.859375 0 Z M 7.671875 -15.53125 L 8.140625 -15.53125 C 9.441406 -15.53125 10.410156 -15.757812 11.046875 -16.21875 C 11.691406 -16.675781 12.015625 -17.421875 12.015625 -18.453125 C 12.015625 -20.179688 10.722656 -21.046875 8.140625 -21.046875 L 7.671875 -21.046875 Z M 7.671875 -4.484375 L 9.5 -4.484375 C 12.351562 -4.484375 13.78125 -5.429688 13.78125 -7.328125 C 13.78125 -8.460938 13.421875 -9.28125 12.703125 -9.78125 C 11.992188 -10.28125 10.925781 -10.53125 9.5 -10.53125 L 7.671875 -10.53125 Z M 7.671875 -4.484375 "/></g></g></g><g fill="#0da0d8" fill-opacity="1"><g transform="translate(56.009073, 46.019723)"><g><path d="M 12.96875 -25.53125 L 12.96875 -7.21875 C 12.96875 -4.71875 12.28125 -2.8125 10.90625 -1.5 C 9.539062 -0.1875 7.578125 0.46875 5.015625 0.46875 C 4.335938 0.46875 3.664062 0.382812 3 0.21875 C 2.34375 0.0507812 1.785156 -0.148438 1.328125 -0.390625 C 0.878906 -0.628906 0.472656 -0.867188 0.109375 -1.109375 C -0.253906 -1.359375 -0.519531 -1.566406 -0.6875 -1.734375 L -0.953125 -1.984375 L 0.890625 -6.84375 C 2.109375 -5.6875 3.210938 -5.109375 4.203125 -5.109375 C 5.097656 -5.109375 5.8125 -5.398438 6.34375 -5.984375 C 6.882812 -6.578125 7.15625 -7.484375 7.15625 -8.703125 L 7.15625 -25.53125 Z M 12.96875 -25.53125 "/></g></g></g><g fill="#0da0d8" fill-opacity="1"><g transform="translate(73.427089, 46.019723)"><g><path d="M 16.46875 -25.53125 L 16.46875 -20.421875 L 7.671875 -20.421875 L 7.671875 -15.359375 L 16.09375 -15.359375 L 16.09375 -10.25 L 7.671875 -10.25 L 7.671875 -5.109375 L 16.46875 -5.109375 L 16.46875 0 L 1.859375 0 L 1.859375 -25.53125 Z M 16.46875 -25.53125 "/></g></g></g><g fill="#0da0d8" fill-opacity="1"><g transform="translate(94.278876, 46.019723)"><g><path d="M 0.25 -20.421875 L 0.25 -25.53125 L 18.203125 -25.53125 L 18.203125 -20.421875 L 12.140625 -20.421875 L 12.140625 0 L 6.3125 0 L 6.3125 -20.421875 Z M 0.25 -20.421875 "/></g></g></g><g fill="#0da0d8" fill-opacity="1"><g transform="translate(115.62561, 46.019723)"><g><path d="M 7.671875 -25.53125 L 7.671875 0 L 1.859375 0 L 1.859375 -25.53125 Z M 7.671875 -25.53125 "/></g></g></g><g fill="#0da0d8" fill-opacity="1"><g transform="translate(128.063113, 46.019723)"><g><path d="M 9.84375 0 L -0.859375 -25.53125 L 5.703125 -25.53125 L 12.140625 -8.765625 L 18.578125 -25.53125 L 25.140625 -25.53125 L 14.421875 0 Z M 9.84375 0 "/></g></g></g><g fill="#0da0d8" fill-opacity="1"><g transform="translate(181.551053, 46.019723)"><g><path d="M 11.265625 -26 C 12.648438 -26 14 -25.796875 15.3125 -25.390625 C 16.632812 -24.992188 17.617188 -24.597656 18.265625 -24.203125 L 19.1875 -23.59375 L 16.84375 -18.9375 C 16.65625 -19.0625 16.394531 -19.222656 16.0625 -19.421875 C 15.726562 -19.617188 15.109375 -19.878906 14.203125 -20.203125 C 13.296875 -20.535156 12.453125 -20.703125 11.671875 -20.703125 C 10.703125 -20.703125 9.953125 -20.492188 9.421875 -20.078125 C 8.898438 -19.671875 8.640625 -19.117188 8.640625 -18.421875 C 8.640625 -18.066406 8.757812 -17.738281 9 -17.4375 C 9.25 -17.144531 9.671875 -16.828125 10.265625 -16.484375 C 10.867188 -16.140625 11.394531 -15.863281 11.84375 -15.65625 C 12.300781 -15.457031 13.003906 -15.148438 13.953125 -14.734375 C 15.609375 -14.035156 17.019531 -13.082031 18.1875 -11.875 C 19.351562 -10.664062 19.9375 -9.296875 19.9375 -7.765625 C 19.9375 -6.304688 19.671875 -5.03125 19.140625 -3.9375 C 18.617188 -2.84375 17.894531 -1.984375 16.96875 -1.359375 C 16.050781 -0.742188 15.035156 -0.285156 13.921875 0.015625 C 12.804688 0.316406 11.601562 0.46875 10.3125 0.46875 C 9.195312 0.46875 8.101562 0.351562 7.03125 0.125 C 5.957031 -0.101562 5.054688 -0.382812 4.328125 -0.71875 C 3.609375 -1.0625 2.957031 -1.398438 2.375 -1.734375 C 1.800781 -2.066406 1.378906 -2.34375 1.109375 -2.5625 L 0.71875 -2.90625 L 3.625 -7.796875 C 3.875 -7.585938 4.210938 -7.320312 4.640625 -7 C 5.078125 -6.6875 5.847656 -6.257812 6.953125 -5.71875 C 8.054688 -5.1875 9.03125 -4.921875 9.875 -4.921875 C 12.332031 -4.921875 13.5625 -5.753906 13.5625 -7.421875 C 13.5625 -7.773438 13.472656 -8.101562 13.296875 -8.40625 C 13.117188 -8.707031 12.804688 -9.003906 12.359375 -9.296875 C 11.921875 -9.597656 11.53125 -9.835938 11.1875 -10.015625 C 10.84375 -10.191406 10.285156 -10.457031 9.515625 -10.8125 C 8.742188 -11.175781 8.171875 -11.453125 7.796875 -11.640625 C 6.253906 -12.398438 5.054688 -13.351562 4.203125 -14.5 C 3.359375 -15.644531 2.9375 -16.878906 2.9375 -18.203125 C 2.9375 -20.492188 3.78125 -22.363281 5.46875 -23.8125 C 7.164062 -25.269531 9.097656 -26 11.265625 -26 Z M 11.265625 -26 "/></g></g></g><g fill="#0da0d8" fill-opacity="1"><g transform="translate(0.986848, 69.393806)"><g><path d="M 0.953125 -13 L 4.71875 -13 C 6.519531 -13 8.0625 -12.378906 9.34375 -11.140625 C 10.625 -9.910156 11.265625 -8.367188 11.265625 -6.515625 C 11.265625 -4.640625 10.625 -3.082031 9.34375 -1.84375 C 8.070312 -0.613281 6.53125 0 4.71875 0 L 0.953125 0 Z M 3.90625 -2.65625 L 4.359375 -2.65625 C 5.441406 -2.65625 6.328125 -3.019531 7.015625 -3.75 C 7.710938 -4.476562 8.066406 -5.394531 8.078125 -6.5 C 8.078125 -7.601562 7.726562 -8.519531 7.03125 -9.25 C 6.34375 -9.988281 5.453125 -10.359375 4.359375 -10.359375 L 3.90625 -10.359375 Z M 3.90625 -2.65625 "/></g></g></g><g fill="#0da0d8" fill-opacity="1"><g transform="translate(14.092767, 69.393806)"><g><path d="M 8.390625 -13 L 8.390625 -10.40625 L 3.90625 -10.40625 L 3.90625 -7.8125 L 8.203125 -7.8125 L 8.203125 -5.21875 L 3.90625 -5.21875 L 3.90625 -2.59375 L 8.390625 -2.59375 L 8.390625 0 L 0.953125 0 L 0.953125 -13 Z M 8.390625 -13 "/></g></g></g><g fill="#0da0d8" fill-opacity="1"><g transform="translate(24.71024, 69.393806)"><g/></g></g><g fill="#0da0d8" fill-opacity="1"><g transform="translate(30.492547, 69.393806)"><g><path d="M 0.953125 -13 L 4.71875 -13 C 6.519531 -13 8.0625 -12.378906 9.34375 -11.140625 C 10.625 -9.910156 11.265625 -8.367188 11.265625 -6.515625 C 11.265625 -4.640625 10.625 -3.082031 9.34375 -1.84375 C 8.070312 -0.613281 6.53125 0 4.71875 0 L 0.953125 0 Z M 3.90625 -2.65625 L 4.359375 -2.65625 C 5.441406 -2.65625 6.328125 -3.019531 7.015625 -3.75 C 7.710938 -4.476562 8.066406 -5.394531 8.078125 -6.5 C 8.078125 -7.601562 7.726562 -8.519531 7.03125 -9.25 C 6.34375 -9.988281 5.453125 -10.359375 4.359375 -10.359375 L 3.90625 -10.359375 Z M 3.90625 -2.65625 "/></g></g></g><g fill="#0da0d8" fill-opacity="1"><g transform="translate(43.598466, 69.393806)"><g><path d="M 8.390625 -13 L 8.390625 -10.40625 L 3.90625 -10.40625 L 3.90625 -7.8125 L 8.203125 -7.8125 L 8.203125 -5.21875 L 3.90625 -5.21875 L 3.90625 -2.59375 L 8.390625 -2.59375 L 8.390625 0 L 0.953125 0 L 0.953125 -13 Z M 8.390625 -13 "/></g></g></g><g fill="#0da0d8" fill-opacity="1"><g transform="translate(54.215939, 69.393806)"><g><path d="M 5.734375 -13.25 C 6.441406 -13.25 7.128906 -13.144531 7.796875 -12.9375 C 8.472656 -12.726562 8.972656 -12.523438 9.296875 -12.328125 L 9.78125 -12.015625 L 8.578125 -9.65625 C 8.484375 -9.71875 8.351562 -9.796875 8.1875 -9.890625 C 8.019531 -9.992188 7.703125 -10.128906 7.234375 -10.296875 C 6.773438 -10.460938 6.34375 -10.546875 5.9375 -10.546875 C 5.445312 -10.546875 5.066406 -10.441406 4.796875 -10.234375 C 4.535156 -10.023438 4.40625 -9.738281 4.40625 -9.375 C 4.40625 -9.195312 4.46875 -9.03125 4.59375 -8.875 C 4.71875 -8.726562 4.929688 -8.566406 5.234375 -8.390625 C 5.535156 -8.222656 5.800781 -8.082031 6.03125 -7.96875 C 6.269531 -7.863281 6.628906 -7.707031 7.109375 -7.5 C 7.953125 -7.144531 8.671875 -6.660156 9.265625 -6.046875 C 9.859375 -5.429688 10.15625 -4.734375 10.15625 -3.953125 C 10.15625 -3.210938 10.019531 -2.5625 9.75 -2 C 9.476562 -1.445312 9.109375 -1.007812 8.640625 -0.6875 C 8.179688 -0.375 7.664062 -0.144531 7.09375 0 C 6.53125 0.15625 5.914062 0.234375 5.25 0.234375 C 4.6875 0.234375 4.128906 0.175781 3.578125 0.0625 C 3.035156 -0.0507812 2.578125 -0.191406 2.203125 -0.359375 C 1.835938 -0.535156 1.503906 -0.707031 1.203125 -0.875 C 0.910156 -1.050781 0.695312 -1.195312 0.5625 -1.3125 L 0.359375 -1.484375 L 1.84375 -3.96875 C 1.96875 -3.863281 2.140625 -3.726562 2.359375 -3.5625 C 2.585938 -3.40625 2.984375 -3.1875 3.546875 -2.90625 C 4.109375 -2.632812 4.601562 -2.5 5.03125 -2.5 C 6.28125 -2.5 6.90625 -2.925781 6.90625 -3.78125 C 6.90625 -3.957031 6.859375 -4.125 6.765625 -4.28125 C 6.679688 -4.4375 6.523438 -4.585938 6.296875 -4.734375 C 6.066406 -4.890625 5.863281 -5.007812 5.6875 -5.09375 C 5.519531 -5.1875 5.238281 -5.320312 4.84375 -5.5 C 4.445312 -5.6875 4.15625 -5.828125 3.96875 -5.921875 C 3.1875 -6.316406 2.578125 -6.804688 2.140625 -7.390625 C 1.710938 -7.972656 1.5 -8.597656 1.5 -9.265625 C 1.5 -10.429688 1.925781 -11.382812 2.78125 -12.125 C 3.644531 -12.875 4.628906 -13.25 5.734375 -13.25 Z M 5.734375 -13.25 "/></g></g></g><g fill="#0da0d8" fill-opacity="1"><g transform="translate(66.282388, 69.393806)"><g><path d="M 8.390625 -13 L 8.390625 -10.40625 L 3.90625 -10.40625 L 3.90625 -7.8125 L 8.203125 -7.8125 L 8.203125 -5.21875 L 3.90625 -5.21875 L 3.90625 -2.59375 L 8.390625 -2.59375 L 8.390625 0 L 0.953125 0 L 0.953125 -13 Z M 8.390625 -13 "/></g></g></g><g fill="#0da0d8" fill-opacity="1"><g transform="translate(76.899861, 69.393806)"><g><path d="M 3.90625 -8.078125 L 3.90625 0 L 0.953125 0 L 0.953125 -13 L 3.90625 -13 L 9.078125 -4.9375 L 9.109375 -4.9375 L 9.109375 -13 L 12.078125 -13 L 12.078125 0 L 9.109375 0 L 3.9375 -8.078125 Z M 3.90625 -8.078125 "/></g></g></g><g fill="#0da0d8" fill-opacity="1"><g transform="translate(91.391765, 69.393806)"><g><path d="M 5.015625 0 L -0.4375 -13 L 2.90625 -13 L 6.1875 -4.46875 L 9.453125 -13 L 12.796875 -13 L 7.34375 0 Z M 5.015625 0 "/></g></g></g><g fill="#0da0d8" fill-opacity="1"><g transform="translate(105.222171, 69.393806)"><g><path d="M 0.359375 -6.515625 C 0.359375 -8.390625 1 -9.976562 2.28125 -11.28125 C 3.5625 -12.59375 5.109375 -13.25 6.921875 -13.25 C 8.742188 -13.25 10.289062 -12.597656 11.5625 -11.296875 C 12.832031 -9.992188 13.46875 -8.398438 13.46875 -6.515625 C 13.46875 -4.609375 12.84375 -3.003906 11.59375 -1.703125 C 10.34375 -0.410156 8.785156 0.234375 6.921875 0.234375 C 5.015625 0.234375 3.441406 -0.40625 2.203125 -1.6875 C 0.972656 -2.976562 0.359375 -4.585938 0.359375 -6.515625 Z M 3.5625 -6.515625 C 3.5625 -5.828125 3.664062 -5.203125 3.875 -4.640625 C 4.082031 -4.078125 4.445312 -3.601562 4.96875 -3.21875 C 5.5 -2.832031 6.148438 -2.640625 6.921875 -2.640625 C 8.023438 -2.640625 8.859375 -3.015625 9.421875 -3.765625 C 9.984375 -4.523438 10.265625 -5.441406 10.265625 -6.515625 C 10.265625 -7.578125 9.976562 -8.488281 9.40625 -9.25 C 8.832031 -10.007812 8.003906 -10.390625 6.921875 -10.390625 C 5.847656 -10.390625 5.019531 -10.007812 4.4375 -9.25 C 3.851562 -8.488281 3.5625 -7.578125 3.5625 -6.515625 Z M 3.5625 -6.515625 "/></g></g></g><g fill="#0da0d8" fill-opacity="1"><g transform="translate(120.517312, 69.393806)"><g><path d="M 3.90625 -13 L 3.90625 -2.59375 L 8.390625 -2.59375 L 8.390625 0 L 0.953125 0 L 0.953125 -13 Z M 3.90625 -13 "/></g></g></g><g fill="#0da0d8" fill-opacity="1"><g transform="translate(130.898537, 69.393806)"><g><path d="M 5.015625 0 L -0.4375 -13 L 2.90625 -13 L 6.1875 -4.46875 L 9.453125 -13 L 12.796875 -13 L 7.34375 0 Z M 5.015625 0 "/></g></g></g><g fill="#0da0d8" fill-opacity="1"><g transform="translate(144.728943, 69.393806)"><g><path d="M 3.90625 -13 L 3.90625 0 L 0.953125 0 L 0.953125 -13 Z M 3.90625 -13 "/></g></g></g><g fill="#0da0d8" fill-opacity="1"><g transform="translate(151.062481, 69.393806)"><g><path d="M 11.703125 0 L 11.078125 -7.703125 L 11 -7.703125 L 8.34375 -0.078125 L 6.578125 -0.078125 L 3.90625 -7.703125 L 3.828125 -7.703125 L 3.21875 0 L 0.25 0 L 1.421875 -13 L 4.578125 -13 L 7.453125 -5.5 L 10.34375 -13 L 13.5 -13 L 14.65625 0 Z M 11.703125 0 "/></g></g></g><g fill="#0da0d8" fill-opacity="1"><g transform="translate(167.444353, 69.393806)"><g><path d="M 8.390625 -13 L 8.390625 -10.40625 L 3.90625 -10.40625 L 3.90625 -7.8125 L 8.203125 -7.8125 L 8.203125 -5.21875 L 3.90625 -5.21875 L 3.90625 -2.59375 L 8.390625 -2.59375 L 8.390625 0 L 0.953125 0 L 0.953125 -13 Z M 8.390625 -13 "/></g></g></g><g fill="#0da0d8" fill-opacity="1"><g transform="translate(178.061826, 69.393806)"><g><path d="M 3.90625 -8.078125 L 3.90625 0 L 0.953125 0 L 0.953125 -13 L 3.90625 -13 L 9.078125 -4.9375 L 9.109375 -4.9375 L 9.109375 -13 L 12.078125 -13 L 12.078125 0 L 9.109375 0 L 3.9375 -8.078125 Z M 3.90625 -8.078125 "/></g></g></g><g fill="#0da0d8" fill-opacity="1"><g transform="translate(192.55373, 69.393806)"><g><path d="M 0.125 -10.40625 L 0.125 -13 L 9.265625 -13 L 9.265625 -10.40625 L 6.1875 -10.40625 L 6.1875 0 L 3.21875 0 L 3.21875 -10.40625 Z M 0.125 -10.40625 "/></g></g></g><g fill="#0da0d8" fill-opacity="1"><g transform="translate(203.423195, 69.393806)"><g><path d="M 0.359375 -6.515625 C 0.359375 -8.390625 1 -9.976562 2.28125 -11.28125 C 3.5625 -12.59375 5.109375 -13.25 6.921875 -13.25 C 8.742188 -13.25 10.289062 -12.597656 11.5625 -11.296875 C 12.832031 -9.992188 13.46875 -8.398438 13.46875 -6.515625 C 13.46875 -4.609375 12.84375 -3.003906 11.59375 -1.703125 C 10.34375 -0.410156 8.785156 0.234375 6.921875 0.234375 C 5.015625 0.234375 3.441406 -0.40625 2.203125 -1.6875 C 0.972656 -2.976562 0.359375 -4.585938 0.359375 -6.515625 Z M 3.5625 -6.515625 C 3.5625 -5.828125 3.664062 -5.203125 3.875 -4.640625 C 4.082031 -4.078125 4.445312 -3.601562 4.96875 -3.21875 C 5.5 -2.832031 6.148438 -2.640625 6.921875 -2.640625 C 8.023438 -2.640625 8.859375 -3.015625 9.421875 -3.765625 C 9.984375 -4.523438 10.265625 -5.441406 10.265625 -6.515625 C 10.265625 -7.578125 9.976562 -8.488281 9.40625 -9.25 C 8.832031 -10.007812 8.003906 -10.390625 6.921875 -10.390625 C 5.847656 -10.390625 5.019531 -10.007812 4.4375 -9.25 C 3.851562 -8.488281 3.5625 -7.578125 3.5625 -6.515625 Z M 3.5625 -6.515625 "/></g></g></g><g fill="#0da0d8" fill-opacity="1"><g transform="translate(218.718336, 69.393806)"><g/></g></g><g fill="#0da0d8" fill-opacity="1"><g transform="translate(224.500643, 69.393806)"><g><path d="M 5.734375 -13.25 C 6.441406 -13.25 7.128906 -13.144531 7.796875 -12.9375 C 8.472656 -12.726562 8.972656 -12.523438 9.296875 -12.328125 L 9.78125 -12.015625 L 8.578125 -9.65625 C 8.484375 -9.71875 8.351562 -9.796875 8.1875 -9.890625 C 8.019531 -9.992188 7.703125 -10.128906 7.234375 -10.296875 C 6.773438 -10.460938 6.34375 -10.546875 5.9375 -10.546875 C 5.445312 -10.546875 5.066406 -10.441406 4.796875 -10.234375 C 4.535156 -10.023438 4.40625 -9.738281 4.40625 -9.375 C 4.40625 -9.195312 4.46875 -9.03125 4.59375 -8.875 C 4.71875 -8.726562 4.929688 -8.566406 5.234375 -8.390625 C 5.535156 -8.222656 5.800781 -8.082031 6.03125 -7.96875 C 6.269531 -7.863281 6.628906 -7.707031 7.109375 -7.5 C 7.953125 -7.144531 8.671875 -6.660156 9.265625 -6.046875 C 9.859375 -5.429688 10.15625 -4.734375 10.15625 -3.953125 C 10.15625 -3.210938 10.019531 -2.5625 9.75 -2 C 9.476562 -1.445312 9.109375 -1.007812 8.640625 -0.6875 C 8.179688 -0.375 7.664062 -0.144531 7.09375 0 C 6.53125 0.15625 5.914062 0.234375 5.25 0.234375 C 4.6875 0.234375 4.128906 0.175781 3.578125 0.0625 C 3.035156 -0.0507812 2.578125 -0.191406 2.203125 -0.359375 C 1.835938 -0.535156 1.503906 -0.707031 1.203125 -0.875 C 0.910156 -1.050781 0.695312 -1.195312 0.5625 -1.3125 L 0.359375 -1.484375 L 1.84375 -3.96875 C 1.96875 -3.863281 2.140625 -3.726562 2.359375 -3.5625 C 2.585938 -3.40625 2.984375 -3.1875 3.546875 -2.90625 C 4.109375 -2.632812 4.601562 -2.5 5.03125 -2.5 C 6.28125 -2.5 6.90625 -2.925781 6.90625 -3.78125 C 6.90625 -3.957031 6.859375 -4.125 6.765625 -4.28125 C 6.679688 -4.4375 6.523438 -4.585938 6.296875 -4.734375 C 6.066406 -4.890625 5.863281 -5.007812 5.6875 -5.09375 C 5.519531 -5.1875 5.238281 -5.320312 4.84375 -5.5 C 4.445312 -5.6875 4.15625 -5.828125 3.96875 -5.921875 C 3.1875 -6.316406 2.578125 -6.804688 2.140625 -7.390625 C 1.710938 -7.972656 1.5 -8.597656 1.5 -9.265625 C 1.5 -10.429688 1.925781 -11.382812 2.78125 -12.125 C 3.644531 -12.875 4.628906 -13.25 5.734375 -13.25 Z M 5.734375 -13.25 "/></g></g></g><g fill="#0da0d8" fill-opacity="1"><g transform="translate(236.567092, 69.393806)"><g><path d="M 10.9375 -13 L 10.9375 -4.625 C 10.9375 -3.019531 10.503906 -1.804688 9.640625 -0.984375 C 8.785156 -0.171875 7.523438 0.234375 5.859375 0.234375 C 4.203125 0.234375 2.941406 -0.171875 2.078125 -0.984375 C 1.210938 -1.804688 0.78125 -3.019531 0.78125 -4.625 L 0.78125 -13 L 3.75 -13 L 3.75 -5.484375 C 3.75 -4.429688 3.914062 -3.703125 4.25 -3.296875 C 4.582031 -2.890625 5.117188 -2.6875 5.859375 -2.6875 C 6.609375 -2.6875 7.148438 -2.890625 7.484375 -3.296875 C 7.816406 -3.703125 7.984375 -4.429688 7.984375 -5.484375 L 7.984375 -13 Z M 10.9375 -13 "/></g></g></g><g fill="#0da0d8" fill-opacity="1"><g transform="translate(249.767519, 69.393806)"><g><path d="M 5.734375 -13.25 C 6.441406 -13.25 7.128906 -13.144531 7.796875 -12.9375 C 8.472656 -12.726562 8.972656 -12.523438 9.296875 -12.328125 L 9.78125 -12.015625 L 8.578125 -9.65625 C 8.484375 -9.71875 8.351562 -9.796875 8.1875 -9.890625 C 8.019531 -9.992188 7.703125 -10.128906 7.234375 -10.296875 C 6.773438 -10.460938 6.34375 -10.546875 5.9375 -10.546875 C 5.445312 -10.546875 5.066406 -10.441406 4.796875 -10.234375 C 4.535156 -10.023438 4.40625 -9.738281 4.40625 -9.375 C 4.40625 -9.195312 4.46875 -9.03125 4.59375 -8.875 C 4.71875 -8.726562 4.929688 -8.566406 5.234375 -8.390625 C 5.535156 -8.222656 5.800781 -8.082031 6.03125 -7.96875 C 6.269531 -7.863281 6.628906 -7.707031 7.109375 -7.5 C 7.953125 -7.144531 8.671875 -6.660156 9.265625 -6.046875 C 9.859375 -5.429688 10.15625 -4.734375 10.15625 -3.953125 C 10.15625 -3.210938 10.019531 -2.5625 9.75 -2 C 9.476562 -1.445312 9.109375 -1.007812 8.640625 -0.6875 C 8.179688 -0.375 7.664062 -0.144531 7.09375 0 C 6.53125 0.15625 5.914062 0.234375 5.25 0.234375 C 4.6875 0.234375 4.128906 0.175781 3.578125 0.0625 C 3.035156 -0.0507812 2.578125 -0.191406 2.203125 -0.359375 C 1.835938 -0.535156 1.503906 -0.707031 1.203125 -0.875 C 0.910156 -1.050781 0.695312 -1.195312 0.5625 -1.3125 L 0.359375 -1.484375 L 1.84375 -3.96875 C 1.96875 -3.863281 2.140625 -3.726562 2.359375 -3.5625 C 2.585938 -3.40625 2.984375 -3.1875 3.546875 -2.90625 C 4.109375 -2.632812 4.601562 -2.5 5.03125 -2.5 C 6.28125 -2.5 6.90625 -2.925781 6.90625 -3.78125 C 6.90625 -3.957031 6.859375 -4.125 6.765625 -4.28125 C 6.679688 -4.4375 6.523438 -4.585938 6.296875 -4.734375 C 6.066406 -4.890625 5.863281 -5.007812 5.6875 -5.09375 C 5.519531 -5.1875 5.238281 -5.320312 4.84375 -5.5 C 4.445312 -5.6875 4.15625 -5.828125 3.96875 -5.921875 C 3.1875 -6.316406 2.578125 -6.804688 2.140625 -7.390625 C 1.710938 -7.972656 1.5 -8.597656 1.5 -9.265625 C 1.5 -10.429688 1.925781 -11.382812 2.78125 -12.125 C 3.644531 -12.875 4.628906 -13.25 5.734375 -13.25 Z M 5.734375 -13.25 "/></g></g></g><g fill="#0da0d8" fill-opacity="1"><g transform="translate(261.833967, 69.393806)"><g><path d="M 0.125 -10.40625 L 0.125 -13 L 9.265625 -13 L 9.265625 -10.40625 L 6.1875 -10.40625 L 6.1875 0 L 3.21875 0 L 3.21875 -10.40625 Z M 0.125 -10.40625 "/></g></g></g><g fill="#0da0d8" fill-opacity="1"><g transform="translate(272.703433, 69.393806)"><g><path d="M 8.390625 -13 L 8.390625 -10.40625 L 3.90625 -10.40625 L 3.90625 -7.8125 L 8.203125 -7.8125 L 8.203125 -5.21875 L 3.90625 -5.21875 L 3.90625 -2.59375 L 8.390625 -2.59375 L 8.390625 0 L 0.953125 0 L 0.953125 -13 Z M 8.390625 -13 "/></g></g></g><g fill="#0da0d8" fill-opacity="1"><g transform="translate(283.320906, 69.393806)"><g><path d="M 3.90625 -8.078125 L 3.90625 0 L 0.953125 0 L 0.953125 -13 L 3.90625 -13 L 9.078125 -4.9375 L 9.109375 -4.9375 L 9.109375 -13 L 12.078125 -13 L 12.078125 0 L 9.109375 0 L 3.9375 -8.078125 Z M 3.90625 -8.078125 "/></g></g></g><g fill="#0da0d8" fill-opacity="1"><g transform="translate(297.81281, 69.393806)"><g><path d="M 0.125 -10.40625 L 0.125 -13 L 9.265625 -13 L 9.265625 -10.40625 L 6.1875 -10.40625 L 6.1875 0 L 3.21875 0 L 3.21875 -10.40625 Z M 0.125 -10.40625 "/></g></g></g><g fill="#0da0d8" fill-opacity="1"><g transform="translate(308.682275, 69.393806)"><g><path d="M 5.25 -15.390625 L 8.453125 -18.15625 L 9.890625 -16.34375 L 6.140625 -14.171875 Z M 7.546875 -13 L 12.796875 0 L 9.609375 0 L 8.65625 -2.59375 L 3.703125 -2.59375 L 2.75 0 L -0.4375 0 L 4.8125 -13 Z M 7.640625 -5.203125 L 6.203125 -8.984375 L 6.171875 -8.984375 L 4.71875 -5.203125 Z M 7.640625 -5.203125 "/></g></g></g><g fill="#0da0d8" fill-opacity="1"><g transform="translate(322.512666, 69.393806)"><g><path d="M 5.015625 0 L -0.4375 -13 L 2.90625 -13 L 6.1875 -4.46875 L 9.453125 -13 L 12.796875 -13 L 7.34375 0 Z M 5.015625 0 "/></g></g></g><g fill="#0da0d8" fill-opacity="1"><g transform="translate(336.343057, 69.393806)"><g><path d="M 8.390625 -13 L 8.390625 -10.40625 L 3.90625 -10.40625 L 3.90625 -7.8125 L 8.203125 -7.8125 L 8.203125 -5.21875 L 3.90625 -5.21875 L 3.90625 -2.59375 L 8.390625 -2.59375 L 8.390625 0 L 0.953125 0 L 0.953125 -13 Z M 8.390625 -13 "/></g></g></g><g fill="#0da0d8" fill-opacity="1"><g transform="translate(346.96053, 69.393806)"><g><path d="M 3.90625 -13 L 3.90625 -2.59375 L 8.390625 -2.59375 L 8.390625 0 L 0.953125 0 L 0.953125 -13 Z M 3.90625 -13 "/></g></g></g></svg>